<?xml version="1.0" encoding="utf-8"?>
<!-- Generator: Adobe Illustrator 19.1.1, SVG Export Plug-In . SVG Version: 6.00 Build 0)  -->
<svg version="1.1" id="Layer_1" xmlns="http://www.w3.org/2000/svg" xmlns:xlink="http://www.w3.org/1999/xlink" x="0px" y="0px"
	 viewBox="511 -127.1 1204.2 509.5" style="enable-background:new 511 -127.1 1204.2 509.5;" xml:space="preserve">
<style type="text/css">
	.st0{fill:#78C2FF;}
	.st1{fill:#78C2FF;stroke:#78C2FF;stroke-miterlimit:10;}
	.st2{fill:#509B50;}
	.st3{fill:#BEDBEA;}
	.st4{fill:#D7ECF9;}
	.st5{fill:#B5D3E2;}
	.st6{fill:#91B9C9;}
	.st7{fill:#0071BC;}
	.st8{fill:#0270AB;}
	.st9{fill:#004679;}
	.st10{opacity:0.1;fill:#F0F5F9;}
	.st11{fill:#D0DAE4;}
	.st12{fill:#05568D;}
	.st13{fill:#5FAF5F;}
	.st14{fill:#2F97D1;}
	.st15{fill:#248EBC;}
	.st16{fill:#CBEAFB;}
	.st17{fill:#538DAA;}
	.st18{fill:#57A7DB;}
	.st19{fill:#E29661;}
	.st20{fill:#9AA3B4;}
	.st21{fill:#CE7944;}
	.st22{fill:#C4B798;}
	.st23{fill:#9098A8;}
	.st24{fill:#6CA5BC;}
	.st25{fill:url(#SVGID_1_);}
	.st26{fill:#ACD2E5;}
	.st27{fill:#FFFFFF;}
	.st28{fill:#E0E0E0;}
	.st29{fill:#FF8761;}
	.st30{fill:#65B8EA;}
	.st31{fill:#95C8EC;}
	.st32{fill:#B0BEC5;}
	.st33{fill:#70B2E2;}
	.st34{fill:#EEA886;}
	.st35{fill:#414773;}
	.st36{fill:#2D314F;}
	.st37{fill:#2B3B57;}
	.st38{fill:#F2A24C;}
	.st39{fill:#353A3D;}
	.st40{fill:#E08D3B;}
	.st41{fill:#E55353;}
	.st42{fill:#78C2FF;stroke:#FFFFFF;stroke-width:3;stroke-miterlimit:10;}
	.st43{fill:#71BE72;}
	.st44{fill:#424773;}
	.st45{fill:#292C47;}
	.st46{fill:#754836;}
	.st47{fill:#E2D2CA;}
	.st48{fill:#546E7A;}
	.st49{fill:#BAC9CE;}
	.st50{fill:url(#_Path_4-2_1_);}
	.st51{fill:url(#SVGID_2_);}
	.st52{opacity:0.71;}
	.st53{opacity:0.71;fill:#BDDDF4;enable-background:new    ;}
	.st54{opacity:0.3;fill:#F1F2F2;enable-background:new    ;}
	.st55{fill:#FFFFFF;stroke:#78C2FF;stroke-width:3;stroke-miterlimit:10;}
	.st56{fill:#FFFFFF;stroke:#78C2FF;stroke-width:3;stroke-linecap:round;stroke-miterlimit:10;}
</style>
<g>
	<g>
		<path class="st0" d="M1561.5,24.6l-1-2.7c-0.9-0.1-1.8-0.3-2.7-0.6l-2.1,1.9l-6-4.3l1.2-2.6c-0.6-0.7-1-1.5-1.5-2.3l-2.8-0.1
			l-1.2-7.3l2.7-1c0.1-0.9,0.3-1.8,0.6-2.7l-1.9-2.1l4.3-6l2.6,1.2c0.7-0.6,1.5-1,2.3-1.5l0.1-2.8l7.3-1.2l1,2.7
			c0.9,0.1,1.8,0.3,2.7,0.6l2.1-1.9l6,4.3l-1.2,2.6c0.6,0.7,1,1.5,1.5,2.3l2.8,0.1l1.2,7.3l-2.6,1c-0.1,0.9-0.3,1.8-0.6,2.7l1.9,2.1
			l-4.3,6l-2.6-1.2c-0.7,0.6-1.5,1-2.3,1.5l-0.1,2.8L1561.5,24.6z M1557.4,19l0.6,0.2c1.1,0.4,2.2,0.7,3.4,0.8l0.6,0.1l0.9,2.3
			l4-0.7l0.1-2.4l0.6-0.3c1.1-0.5,2-1.1,2.9-1.8l0.5-0.4l2.2,1l2.3-3.3l-1.7-1.8l0.2-0.6c0.4-1.1,0.7-2.2,0.8-3.4l0.1-0.6l2.3-0.9
			l-0.7-4l-2.4-0.1l-0.3-0.6c-0.5-1.1-1.1-2-1.8-2.9l-0.4-0.5l1-2.2l-3.3-2.4l-1.8,1.7l-0.6-0.2c-1.1-0.4-2.2-0.7-3.4-0.8l-0.6-0.1
			l-0.9-2.3l-4,0.7l-0.1,2.4l-0.6,0.3c-1.1,0.5-2,1.1-2.9,1.8l-0.5,0.4l-2.2-1l-2.3,3.3l1.7,1.8l-0.2,0.6c-0.4,1.1-0.7,2.2-0.8,3.4
			l-0.1,0.6l-2.3,0.9l0.7,4l2.4,0.1l0.3,0.6c0.5,1.1,1.1,2,1.8,2.9l0.4,0.5l-1,2.2l3.3,2.3L1557.4,19z M1562.4,15.6
			c-1.7,0-3.3-0.5-4.6-1.5c-3.6-2.6-4.4-7.6-1.9-11.2c2.6-3.6,7.6-4.4,11.2-1.9c1.7,1.2,2.9,3.1,3.3,5.2c0.4,2.1-0.1,4.2-1.4,6
			c-1.2,1.7-3.1,2.9-5.2,3.3C1563.3,15.6,1562.8,15.6,1562.4,15.6z M1562.4,1.6c-1.9,0-3.7,0.9-4.9,2.5c-0.9,1.3-1.3,2.9-1,4.5
			c0.3,1.6,1.1,3,2.4,3.9l0,0c1.3,0.9,2.9,1.3,4.5,1c1.6-0.3,3-1.1,3.9-2.4c0.9-1.3,1.3-2.9,1-4.5c-0.3-1.6-1.1-3-2.4-3.9
			C1564.8,2,1563.6,1.6,1562.4,1.6z"/>
	</g>
	<g>
		<path class="st0" d="M1505.2,33.1l-2.3-5.9c-2.4-0.3-4.8-0.8-7.1-1.6l-4.6,4.3l-12.5-8.9l2.6-5.8c-1.5-1.9-2.8-4-3.9-6.2l-6.3-0.2
			l-2.6-15.2l5.9-2.3c0.3-2.4,0.8-4.8,1.6-7.1l-4.3-4.6l8.9-12.5l5.8,2.6c1.9-1.5,4-2.8,6.2-3.9l0.2-6.3l15.2-2.6l2.3,5.9
			c2.4,0.3,4.8,0.8,7.1,1.6l4.6-4.3l12.5,8.9l-2.6,5.8c1.5,1.9,2.8,4,3.9,6.2l6.3,0.2l2.6,15.2l-5.9,2.3c-0.3,2.4-0.8,4.8-1.6,7.1
			l4.3,4.6l-8.9,12.5l-5.8-2.6c-1.9,1.5-4,2.8-6.2,3.9l-0.2,6.3L1505.2,33.1z M1495.2,22.4l0.8,0.3c2.6,1,5.3,1.6,8,1.8l0.8,0.1
			l2.1,5.4l10.8-1.8l0.2-5.8l0.8-0.3c2.5-1.1,4.9-2.6,7-4.4l0.6-0.5l5.3,2.4l6.4-8.9l-4-4.2l0.3-0.8c1-2.6,1.6-5.3,1.8-8l0.1-0.8
			l5.4-2.1l-1.8-10.8l-5.8-0.2l-0.3-0.8c-1.1-2.5-2.6-4.9-4.4-7l-0.5-0.6l2.4-5.3l-8.9-6.4l-4.2,4l-0.8-0.3c-2.6-1-5.3-1.6-8-1.8
			l-0.8-0.1l-2.1-5.4l-10.8,1.8l-0.2,5.8l-0.8,0.3c-2.5,1.1-4.9,2.6-7,4.4l-0.6,0.5l-5.3-2.4l-6.4,8.9l4,4.2l-0.3,0.8
			c-1,2.6-1.6,5.3-1.8,8l-0.1,0.8l-5.4,2.1l1.8,10.8l5.8,0.2l0.3,0.8c1.1,2.5,2.6,4.9,4.4,7l0.5,0.6L1482,20l8.9,6.4L1495.2,22.4z
			 M1506.5,12.5c-3.5,0-7.1-1.1-10.1-3.2c-7.9-5.6-9.7-16.6-4.1-24.4c5.6-7.9,16.5-9.7,24.4-4.1c7.9,5.6,9.7,16.6,4.1,24.4
			C1517.4,9.9,1512,12.5,1506.5,12.5z M1506.6-19.8c-4.6,0-9.2,2.2-12.1,6.2c-2.3,3.2-3.2,7.1-2.5,11c0.7,3.9,2.8,7.3,6,9.6
			c6.7,4.7,15.9,3.2,20.6-3.5c2.3-3.2,3.2-7.1,2.5-11c-0.7-3.9-2.8-7.3-6-9.6C1512.6-18.9,1509.6-19.8,1506.6-19.8z"/>
	</g>
</g>
<g>
	<g>
		<path class="st1" d="M1552.6,173l-0.4-0.2c-39.9-20.3-34.5-59.8-34.4-60.2l0.1-0.7h0.7c25.3,0,33.3-8.2,33.4-8.2l0.6-0.7l0.6,0.7
			c0.1,0.1,8,8.2,33.4,8.2h0.7l0.1,0.7c0.1,0.4,5.4,39.8-34.4,60.2L1552.6,173z M1519.4,113.6c-0.5,5.3-2.2,39.2,33.2,57.5
			c35.4-18.3,33.8-52.2,33.2-57.5c-22-0.1-31-6.3-33.2-8.2C1550.3,107.3,1541.4,113.4,1519.4,113.6z"/>
	</g>
	<g>
		<polyline class="st1" points="1221.2,240.9 1551.8,240.9 1551.8,162.1 1553.5,162.1 1553.5,242.5 1222.8,242.5 		"/>
	</g>
	<g>
		<polygon class="st1" points="1608.2,193.8 1593.8,193.8 1593.8,192.1 1606.5,192.1 1606.5,179.4 1608.2,179.4 		"/>
	</g>
	<g>
		<polygon class="st1" points="1511.3,193.8 1496.9,193.8 1496.9,179.4 1498.6,179.4 1498.6,192.1 1511.3,192.1 		"/>
	</g>
	<g>
		<polygon class="st1" points="1498.6,96.9 1496.9,96.9 1496.9,82.5 1511.3,82.5 1511.3,84.2 1498.6,84.2 		"/>
	</g>
	<g>
		<polygon class="st1" points="1608.2,96.9 1606.5,96.9 1606.5,84.2 1593.8,84.2 1593.8,82.5 1608.2,82.5 		"/>
	</g>
	<g>
		<rect x="1606.5" y="118.4" class="st1" width="1.7" height="39.5"/>
	</g>
	<g>
		<rect x="1496.9" y="118.4" class="st1" width="1.7" height="39.5"/>
	</g>
	<g>
		<path class="st1" d="M1552.6,162.9c-3.4,0-6.2-2.8-6.2-6.2c0-3.4,2.8-6.2,6.2-6.2c3.4,0,6.2,2.8,6.2,6.2
			C1558.8,160.2,1556,162.9,1552.6,162.9z M1552.6,152.3c-2.5,0-4.5,2-4.5,4.5c0,2.5,2,4.5,4.5,4.5c2.5,0,4.5-2,4.5-4.5
			C1557.1,154.3,1555.1,152.3,1552.6,152.3z"/>
	</g>
</g>
<g>
	<g>
		<path class="st0" d="M738.7,129.2H607.2l0.2-1.2c2.1-10.8,11.7-18.7,22.7-18.7c1.6,0,3.2,0.2,4.7,0.5c6.9-13,20.2-21.1,34.9-21.1
			c12.6,0,24.4,6,31.9,16.2c2.7-0.8,5.5-1.2,8.4-1.2c14.3,0,26.3,10.3,28.5,24.4L738.7,129.2z M609.6,127.2h126.8
			c-2.5-12.4-13.6-21.6-26.3-21.6c-2.9,0-5.7,0.5-8.5,1.4l-0.7,0.2l-0.4-0.6c-7-10-18.5-15.9-30.7-15.9c-14.3,0-27.1,7.9-33.5,20.7
			l-0.4,0.7l-0.8-0.2c-1.6-0.4-3.3-0.6-5-0.6C620.4,111.3,611.9,117.9,609.6,127.2z"/>
	</g>
	<g>
		<polygon class="st0" points="909.8,226.5 681.8,226.5 681.8,120.2 683.8,120.2 683.8,224.6 909.8,224.6 		"/>
	</g>
	<g>
		<path class="st0" d="M682.8,121.2c-4,0-7.2-3.2-7.2-7.2c0-4,3.2-7.2,7.2-7.2c4,0,7.2,3.2,7.2,7.2
			C690,117.9,686.8,121.2,682.8,121.2z M682.8,108.7c-2.9,0-5.3,2.4-5.3,5.3c0,2.9,2.4,5.3,5.3,5.3c2.9,0,5.3-2.4,5.3-5.3
			C688,111,685.7,108.7,682.8,108.7z"/>
	</g>
</g>
<g>
	<path class="st2" d="M1363.1,324H997.6h-16.3c0-117.8,37.3-93.1,38.1-49.9c1.5-12.9,8.5-16.7,12.8-15.4c2.8,0.8,5.1,10.6,4.5,26.1
		c3.7-14.3,13.7-34.8,24.2-36.9c27.9-5.6,38.1,26.8,39.3,49.7c2.2-2.3,4.8-3.7,7.5-3.7c2.7,0,5.2,1.3,7.3,3.4
		c2.4-13.4,10-23.2,18.9-23.2c10,0,18.2,12.3,19.5,28.3c2.7-4.3,6.8-7,11.5-7c6.6,0,12.2,5.5,14,13.1c2.3-1.1,5.2-1.8,8.3-1.8
		c1.2,0,2.4,0.1,3.5,0.3c-0.4-1.9-0.7-4-0.7-6.2c0-10,4.9-18.1,10.9-18.1c4.8,0,8.8,5,10.3,12.1c1.1-3.1,2.6-5.1,4.4-5.1
		c2.4,0,4.4,3.5,5.3,8.5c1.4-1.2,3-1.9,4.7-1.9c5.7,0,10.4,7.7,10.4,17.2c0,0,0,0.1,0,0.1c5.4-7.9,13.5-12.9,22.5-12.9
		c4.8,0,9.3,1.4,13.3,3.9c-0.8-9.3,1-17.9,5.1-21.8c4.1-3.9,9.5-2.3,13.9,3.5c5.8-21.2,18.7-36,33.7-36
		C1335.3,250.3,1363.1,267.5,1363.1,324z"/>
	<g>
		<g>
			<rect x="1263.9" y="-31.6" class="st3" width="66.1" height="355.9"/>
			<polygon class="st4" points="1263.9,-31.6 1014.4,-31.6 1014.4,73.7 1031.2,73.7 1031.2,324.4 1263.9,324.4 			"/>
			<rect x="1014.4" y="-31.6" class="st5" width="249.5" height="12.2"/>
			<rect x="1263.9" y="-31.6" class="st6" width="66.1" height="12.2"/>
			<rect x="1147.5" y="315.2" class="st5" width="116.4" height="9.1"/>
			<rect x="1263.9" y="315.2" class="st6" width="66.1" height="9.1"/>
		</g>
		<g>
			<rect x="1031.2" y="73.7" class="st7" width="116.4" height="250.7"/>
			<rect x="1031.2" y="73.7" class="st8" width="29.9" height="250.7"/>
			<rect x="1085.5" y="73.7" class="st8" width="16.7" height="250.7"/>
			<rect x="1031.2" y="73.7" class="st9" width="116.4" height="7.3"/>
			<polygon class="st10" points="1147.5,137.3 1031.2,255.5 1031.2,201.2 1147.5,83.1 			"/>
			<polygon class="st10" points="1147.5,205.9 1031.2,324 1031.2,295.4 1147.5,177.2 			"/>
			<rect x="1024.5" y="146" class="st4" width="123.1" height="13.4"/>
			<rect x="1024.5" y="237.4" class="st11" width="123.1" height="13.4"/>
		</g>
		<g>
			<g>
				<rect x="1274.1" y="4" class="st7" width="16.2" height="284.1"/>
				<g>
					<rect x="1274.1" y="25.5" class="st12" width="16.2" height="6.1"/>
					<rect x="1274.1" y="84.4" class="st12" width="16.2" height="6.1"/>
					<rect x="1274.1" y="143.3" class="st12" width="16.2" height="6.1"/>
					<rect x="1274.1" y="202.2" class="st12" width="16.2" height="6.1"/>
					<rect x="1274.1" y="261.1" class="st12" width="16.2" height="6.1"/>
				</g>
			</g>
			<g>
				<rect x="1303.6" y="4" class="st7" width="16.2" height="284.1"/>
				<g>
					<rect x="1303.6" y="25.5" class="st12" width="16.2" height="6.1"/>
					<rect x="1303.6" y="84.4" class="st12" width="16.2" height="6.1"/>
					<rect x="1303.6" y="143.3" class="st12" width="16.2" height="6.1"/>
					<rect x="1303.6" y="202.2" class="st12" width="16.2" height="6.1"/>
					<rect x="1303.6" y="261.1" class="st12" width="16.2" height="6.1"/>
				</g>
			</g>
		</g>
		<g>
			<rect x="1147.5" y="-70.8" class="st4" width="74.2" height="39.2"/>
			<rect x="1221.7" y="-70.8" class="st3" width="31.8" height="39.2"/>
			<rect x="1140.9" y="-80" class="st5" width="80.9" height="9.2"/>
			<rect x="1221.7" y="-80" class="st6" width="38.4" height="9.2"/>
			<rect x="1159.6" y="-57.2" class="st7" width="15.6" height="25.6"/>
		</g>
		<g>
			<g>
				<rect x="1159.6" y="81" class="st7" width="35.3" height="9.1"/>
				<rect x="1159.6" y="104.8" class="st7" width="35.3" height="9.1"/>
				<rect x="1159.6" y="128.7" class="st7" width="35.3" height="9.1"/>
				<rect x="1159.6" y="152.6" class="st7" width="35.3" height="9.1"/>
				<rect x="1159.6" y="176.4" class="st7" width="35.3" height="9.1"/>
				<rect x="1159.6" y="200.3" class="st7" width="35.3" height="9.1"/>
				<rect x="1159.6" y="224.2" class="st7" width="35.3" height="9.1"/>
				<rect x="1159.6" y="248" class="st7" width="35.3" height="9.1"/>
				<rect x="1159.6" y="271.9" class="st7" width="35.3" height="9.1"/>
				<rect x="1159.6" y="295.8" class="st7" width="35.3" height="9.1"/>
			</g>
			<g>
				<rect x="1209.7" y="81" class="st7" width="35.3" height="9.1"/>
				<rect x="1209.7" y="104.8" class="st7" width="35.3" height="9.1"/>
				<rect x="1209.7" y="128.7" class="st7" width="35.3" height="9.1"/>
				<rect x="1209.7" y="152.6" class="st7" width="35.3" height="9.1"/>
				<rect x="1209.7" y="176.4" class="st7" width="35.3" height="9.1"/>
				<rect x="1209.7" y="200.3" class="st7" width="35.3" height="9.1"/>
				<rect x="1209.7" y="224.2" class="st7" width="35.3" height="9.1"/>
				<rect x="1209.7" y="248" class="st7" width="35.3" height="9.1"/>
				<rect x="1209.7" y="271.9" class="st7" width="35.3" height="9.1"/>
				<rect x="1209.7" y="295.8" class="st7" width="35.3" height="9.1"/>
			</g>
		</g>
	</g>
	<g>
		<path class="st13" d="M1371.8,336.1H972.6c-3.3,0-6-2.7-6-6l0,0c0-3.3,2.7-6,6-6h399.2c3.3,0,6,2.7,6,6l0,0
			C1377.8,333.4,1375.1,336.1,1371.8,336.1z"/>
		<g>
			<g>
				<path class="st13" d="M1288.2,313c-6.1,0-11,4.9-11,11h22C1299.2,318,1294.2,313,1288.2,313z"/>
				<path class="st13" d="M1303.1,317.9c-3.4,0-6.2,2.8-6.2,6.2h12.3C1309.2,320.6,1306.5,317.9,1303.1,317.9z"/>
				<path class="st13" d="M1314.9,320.9c-1.7,0-3.1,1.4-3.1,3.1h6.2C1318,322.3,1316.6,320.9,1314.9,320.9z"/>
				<path class="st13" d="M1325.2,318.3c-3.2,0-5.7,2.6-5.7,5.7h11.5C1331,320.9,1328.4,318.3,1325.2,318.3z"/>
			</g>
		</g>
		<g>
			<g>
				<path class="st13" d="M1008.1,317.3c-3.6,0-6.6,3.3-6.6,7.3h13.2C1014.7,320.6,1011.7,317.3,1008.1,317.3z"/>
				<path class="st13" d="M1016.2,320.3c-2.4,0-4.4,2-4.4,4.4h8.7C1020.5,322.2,1018.6,320.3,1016.2,320.3z"/>
				<path class="st13" d="M1025.2,316.5c-3.1,0-5.6,3.6-5.6,8.1h11.3C1030.8,320.1,1028.3,316.5,1025.2,316.5z"/>
			</g>
		</g>
		<g>
			<g>
				<path class="st13" d="M1079.4,313c6.1,0,11,4.9,11,11h-22C1068.4,318,1073.3,313,1079.4,313z"/>
				<path class="st13" d="M1064.1,318.5c3,0,5.5,2.5,5.5,5.5h-11C1058.6,321,1061.1,318.5,1064.1,318.5z"/>
			</g>
		</g>
		<g>
			<g>
				<path class="st13" d="M1229.5,314.9c-5,0-9.1,4.1-9.1,9.1h18.2C1238.5,319,1234.5,314.9,1229.5,314.9z"/>
				<path class="st13" d="M1242,319.5c-2.5,0-4.5,2-4.5,4.5h9.1C1246.6,321.5,1244.6,319.5,1242,319.5z"/>
			</g>
		</g>
	</g>
</g>
<g>
	<g>
		<g>
			<rect x="833.7" y="21.6" class="st14" width="113.2" height="343.1"/>
		</g>
		<rect x="845.7" y="34.3" class="st15" width="88.9" height="282.4"/>
		<rect x="845.7" y="34.3" class="st16" width="88.9" height="15.8"/>
		<rect x="845.7" y="53.2" class="st16" width="88.9" height="15.8"/>
		<rect x="845.7" y="72.3" class="st16" width="88.9" height="15.8"/>
		<rect x="845.7" y="91.3" class="st16" width="88.9" height="15.8"/>
		<rect x="845.7" y="110.4" class="st16" width="88.9" height="15.8"/>
		<rect x="845.7" y="129.5" class="st16" width="88.9" height="15.8"/>
		<rect x="845.7" y="148.4" class="st16" width="88.9" height="15.8"/>
		<rect x="845.7" y="167.5" class="st16" width="88.9" height="15.8"/>
		<rect x="845.7" y="186.6" class="st16" width="88.9" height="15.8"/>
		<rect x="845.7" y="205.6" class="st16" width="88.9" height="15.8"/>
		<rect x="845.7" y="224.5" class="st16" width="88.9" height="15.8"/>
		<rect x="845.7" y="243.6" class="st16" width="88.9" height="15.8"/>
		<rect x="845.7" y="262.7" class="st16" width="88.9" height="15.8"/>
		<rect x="845.7" y="281.8" class="st16" width="88.9" height="15.8"/>
		<rect x="845.7" y="300.9" class="st16" width="88.9" height="15.8"/>
		<g>
			<rect x="852.4" y="334.1" class="st15" width="2.7" height="30.5"/>
			<rect x="859.1" y="334.1" class="st15" width="2.7" height="30.5"/>
			<rect x="865.7" y="334.1" class="st15" width="2.7" height="30.5"/>
			<rect x="872.4" y="334.1" class="st15" width="2.7" height="30.5"/>
			<rect x="878.9" y="334.1" class="st15" width="2.7" height="30.5"/>
			<rect x="885.5" y="334.1" class="st15" width="2.7" height="30.5"/>
			<rect x="892.2" y="334.1" class="st15" width="2.7" height="30.5"/>
			<rect x="898.7" y="334.1" class="st15" width="2.7" height="30.5"/>
			<rect x="905.3" y="334.1" class="st15" width="2.7" height="30.5"/>
			<rect x="912" y="334.1" class="st15" width="2.7" height="30.5"/>
			<rect x="918.5" y="334.1" class="st15" width="2.7" height="30.5"/>
			<rect x="925.1" y="334.1" class="st15" width="2.7" height="30.5"/>
		</g>
		<rect x="845.7" y="316.7" class="st15" width="88.9" height="8.2"/>
		<rect x="845.7" y="34.3" class="st17" width="88.9" height="1.6"/>
		<rect x="845.7" y="48.4" class="st17" width="88.9" height="1.6"/>
		<rect x="845.7" y="53.2" class="st17" width="88.9" height="1.6"/>
		<rect x="845.7" y="67.3" class="st17" width="88.9" height="1.6"/>
		<rect x="845.7" y="72.3" class="st17" width="88.9" height="1.6"/>
		<rect x="845.7" y="86.4" class="st17" width="88.9" height="1.6"/>
		<rect x="845.7" y="91.3" class="st17" width="88.9" height="1.6"/>
		<rect x="845.7" y="105.5" class="st17" width="88.9" height="1.6"/>
		<rect x="845.7" y="110.4" class="st17" width="88.9" height="1.6"/>
		<rect x="845.7" y="124.6" class="st17" width="88.9" height="1.6"/>
		<rect x="845.7" y="129.5" class="st17" width="88.9" height="1.6"/>
		<rect x="845.7" y="143.7" class="st17" width="88.9" height="1.6"/>
		<rect x="845.7" y="148.4" class="st17" width="88.9" height="1.6"/>
		<rect x="845.7" y="162.6" class="st17" width="88.9" height="1.6"/>
		<rect x="845.7" y="167.5" class="st17" width="88.9" height="1.6"/>
		<rect x="845.7" y="181.7" class="st17" width="88.9" height="1.6"/>
		<rect x="845.7" y="186.6" class="st17" width="88.9" height="1.6"/>
		<rect x="845.7" y="200.7" class="st17" width="88.9" height="1.6"/>
		<rect x="845.7" y="205.6" class="st17" width="88.9" height="1.6"/>
		<rect x="845.7" y="219.8" class="st17" width="88.9" height="1.6"/>
		<rect x="845.7" y="224.5" class="st17" width="88.9" height="1.6"/>
		<rect x="845.7" y="238.7" class="st17" width="88.9" height="1.6"/>
		<rect x="845.7" y="243.6" class="st17" width="88.9" height="1.6"/>
		<rect x="845.7" y="257.8" class="st17" width="88.9" height="1.6"/>
		<rect x="845.7" y="262.7" class="st17" width="88.9" height="1.6"/>
		<rect x="845.7" y="276.9" class="st17" width="88.9" height="1.6"/>
		<rect x="845.7" y="281.8" class="st17" width="88.9" height="1.6"/>
		<rect x="845.7" y="296" class="st17" width="88.9" height="1.6"/>
		<rect x="845.7" y="300.9" class="st17" width="88.9" height="1.6"/>
		<rect x="845.7" y="315" class="st17" width="88.9" height="1.6"/>
		<path class="st15" d="M845.7,45.9L845.7,45.9v-7.5l0,0c1.8,0,3.1,1.5,3.1,3.1v1.1C848.9,44.5,847.5,45.9,845.7,45.9z"/>
		<path class="st15" d="M934.7,45.9L934.7,45.9v-7.5l0,0c-1.8,0-3.1,1.5-3.1,3.1v1.1C931.6,44.5,932.9,45.9,934.7,45.9z"/>
		<g>
			<g>
				<g>
					<rect x="852.8" y="37.9" class="st15" width="1.1" height="8.4"/>
				</g>
				<g>
					<rect x="854.8" y="37.9" class="st15" width="1.1" height="8.4"/>
				</g>
				<g>
					<rect x="856.9" y="37.9" class="st15" width="1.1" height="8.4"/>
				</g>
				<g>
					<rect x="858.9" y="37.9" class="st15" width="1.1" height="8.4"/>
				</g>
				<g>
					<rect x="860.9" y="37.9" class="st15" width="1.1" height="8.4"/>
				</g>
				<g>
					<rect x="863.3" y="37.9" class="st15" width="1.1" height="8.4"/>
				</g>
			</g>
			<g>
				<rect x="867.7" y="37.9" class="st18" width="18.4" height="2.7"/>
			</g>
			<g>
				<rect x="867.5" y="43.5" class="st19" width="18.4" height="2.7"/>
			</g>
		</g>
		<g>
			<g>
				<g>
					<rect x="926.7" y="37.9" class="st15" width="1.1" height="8.4"/>
				</g>
				<g>
					<rect x="924.7" y="37.9" class="st15" width="1.1" height="8.4"/>
				</g>
				<g>
					<rect x="922.5" y="37.9" class="st15" width="1.1" height="8.4"/>
				</g>
				<g>
					<rect x="920.5" y="37.9" class="st15" width="1.1" height="8.4"/>
				</g>
				<g>
					<rect x="918.4" y="37.9" class="st15" width="1.1" height="8.4"/>
				</g>
				<g>
					<rect x="916.2" y="37.9" class="st15" width="1.1" height="8.4"/>
				</g>
			</g>
			<g>
				<rect x="894.6" y="37.9" class="st18" width="18.4" height="2.7"/>
			</g>
			<g>
				<rect x="894.6" y="43.5" class="st19" width="18.4" height="2.7"/>
			</g>
		</g>
		<g>
			<g>
				<g>
					<rect x="852.8" y="57" class="st15" width="1.1" height="8.4"/>
				</g>
				<g>
					<rect x="854.8" y="57" class="st15" width="1.1" height="8.4"/>
				</g>
				<g>
					<rect x="856.9" y="57" class="st15" width="1.1" height="8.4"/>
				</g>
				<g>
					<rect x="858.9" y="57" class="st15" width="1.1" height="8.4"/>
				</g>
				<g>
					<rect x="860.9" y="57" class="st15" width="1.1" height="8.4"/>
				</g>
				<g>
					<rect x="863.3" y="57" class="st15" width="1.1" height="8.4"/>
				</g>
			</g>
			<g>
				<rect x="867.7" y="57" class="st18" width="18.4" height="2.7"/>
			</g>
			<g>
				<rect x="867.5" y="62.6" class="st19" width="18.4" height="2.7"/>
			</g>
		</g>
		<g>
			<g>
				<g>
					<rect x="926.7" y="57" class="st15" width="1.1" height="8.4"/>
				</g>
				<g>
					<rect x="924.7" y="57" class="st15" width="1.1" height="8.4"/>
				</g>
				<g>
					<rect x="922.5" y="57" class="st15" width="1.1" height="8.4"/>
				</g>
				<g>
					<rect x="920.5" y="57" class="st15" width="1.1" height="8.4"/>
				</g>
				<g>
					<rect x="918.4" y="57" class="st15" width="1.1" height="8.4"/>
				</g>
				<g>
					<rect x="916.2" y="57" class="st15" width="1.1" height="8.4"/>
				</g>
			</g>
			<g>
				<rect x="894.6" y="57" class="st18" width="18.4" height="2.7"/>
			</g>
			<g>
				<rect x="894.6" y="62.6" class="st19" width="18.4" height="2.7"/>
			</g>
		</g>
		<g>
			<g>
				<g>
					<rect x="852.8" y="75.9" class="st15" width="1.1" height="8.4"/>
				</g>
				<g>
					<rect x="854.8" y="75.9" class="st15" width="1.1" height="8.4"/>
				</g>
				<g>
					<rect x="856.9" y="75.9" class="st15" width="1.1" height="8.4"/>
				</g>
				<g>
					<rect x="858.9" y="75.9" class="st15" width="1.1" height="8.4"/>
				</g>
				<g>
					<rect x="860.9" y="76.1" class="st15" width="1.1" height="8.4"/>
				</g>
				<g>
					<rect x="863.3" y="76.1" class="st15" width="1.1" height="8.4"/>
				</g>
			</g>
			<g>
				<rect x="867.7" y="76.1" class="st18" width="18.4" height="2.7"/>
			</g>
			<g>
				<rect x="867.5" y="81.7" class="st19" width="18.4" height="2.7"/>
			</g>
		</g>
		<g>
			<g>
				<g>
					<rect x="926.7" y="75.9" class="st15" width="1.1" height="8.4"/>
				</g>
				<g>
					<rect x="924.7" y="75.9" class="st15" width="1.1" height="8.4"/>
				</g>
				<g>
					<rect x="922.5" y="75.9" class="st15" width="1.1" height="8.4"/>
				</g>
				<g>
					<rect x="920.5" y="75.9" class="st15" width="1.1" height="8.4"/>
				</g>
				<g>
					<rect x="918.4" y="76.1" class="st15" width="1.1" height="8.4"/>
				</g>
				<g>
					<rect x="916.2" y="76.1" class="st15" width="1.1" height="8.4"/>
				</g>
			</g>
			<g>
				<rect x="894.6" y="76.1" class="st18" width="18.4" height="2.7"/>
			</g>
			<g>
				<rect x="894.6" y="81.7" class="st19" width="18.4" height="2.7"/>
			</g>
		</g>
		<g>
			<g>
				<g>
					<rect x="852.8" y="95" class="st15" width="1.1" height="8.4"/>
				</g>
				<g>
					<rect x="854.8" y="95" class="st15" width="1.1" height="8.4"/>
				</g>
				<g>
					<rect x="856.9" y="95" class="st15" width="1.1" height="8.4"/>
				</g>
				<g>
					<rect x="858.9" y="95" class="st15" width="1.1" height="8.4"/>
				</g>
				<g>
					<rect x="860.9" y="95.2" class="st15" width="1.1" height="8.4"/>
				</g>
				<g>
					<rect x="863.3" y="95.2" class="st15" width="1.1" height="8.4"/>
				</g>
			</g>
			<g>
				<rect x="867.7" y="95.2" class="st18" width="18.4" height="2.7"/>
			</g>
			<g>
				<rect x="867.5" y="100.8" class="st19" width="18.4" height="2.7"/>
			</g>
		</g>
		<g>
			<g>
				<g>
					<rect x="926.7" y="95" class="st15" width="1.1" height="8.4"/>
				</g>
				<g>
					<rect x="924.7" y="95" class="st15" width="1.1" height="8.4"/>
				</g>
				<g>
					<rect x="922.5" y="95" class="st15" width="1.1" height="8.4"/>
				</g>
				<g>
					<rect x="920.5" y="95" class="st15" width="1.1" height="8.4"/>
				</g>
				<g>
					<rect x="918.4" y="95.2" class="st15" width="1.1" height="8.4"/>
				</g>
				<g>
					<rect x="916.2" y="95.2" class="st15" width="1.1" height="8.4"/>
				</g>
			</g>
			<g>
				<rect x="894.6" y="95.2" class="st18" width="18.4" height="2.7"/>
			</g>
			<g>
				<rect x="894.6" y="100.8" class="st19" width="18.4" height="2.7"/>
			</g>
		</g>
		<g>
			<g>
				<g>
					<rect x="852.8" y="152.2" class="st15" width="1.1" height="8.4"/>
				</g>
				<g>
					<rect x="854.8" y="152.2" class="st15" width="1.1" height="8.4"/>
				</g>
				<g>
					<rect x="856.9" y="152.2" class="st15" width="1.1" height="8.4"/>
				</g>
				<g>
					<rect x="858.9" y="152.2" class="st15" width="1.1" height="8.4"/>
				</g>
				<g>
					<rect x="860.9" y="152.2" class="st15" width="1.1" height="8.4"/>
				</g>
				<g>
					<rect x="863.3" y="152.2" class="st15" width="1.1" height="8.4"/>
				</g>
			</g>
			<g>
				<rect x="867.7" y="152.2" class="st18" width="18.4" height="2.7"/>
			</g>
			<g>
				<rect x="867.5" y="157.8" class="st19" width="18.4" height="2.7"/>
			</g>
		</g>
		<g>
			<g>
				<g>
					<rect x="926.7" y="152.2" class="st15" width="1.1" height="8.4"/>
				</g>
				<g>
					<rect x="924.7" y="152.2" class="st15" width="1.1" height="8.4"/>
				</g>
				<g>
					<rect x="922.5" y="152.2" class="st15" width="1.1" height="8.4"/>
				</g>
				<g>
					<rect x="920.5" y="152.2" class="st15" width="1.1" height="8.4"/>
				</g>
				<g>
					<rect x="918.4" y="152.2" class="st15" width="1.1" height="8.4"/>
				</g>
				<g>
					<rect x="916.2" y="152.2" class="st15" width="1.1" height="8.4"/>
				</g>
			</g>
			<g>
				<rect x="894.6" y="152.2" class="st18" width="18.4" height="2.7"/>
			</g>
			<g>
				<rect x="894.6" y="157.8" class="st19" width="18.4" height="2.7"/>
			</g>
		</g>
		<g>
			<g>
				<g>
					<rect x="852.8" y="171.1" class="st15" width="1.1" height="8.4"/>
				</g>
				<g>
					<rect x="854.8" y="171.1" class="st15" width="1.1" height="8.4"/>
				</g>
				<g>
					<rect x="856.9" y="171.1" class="st15" width="1.1" height="8.4"/>
				</g>
				<g>
					<rect x="858.9" y="171.1" class="st15" width="1.1" height="8.4"/>
				</g>
				<g>
					<rect x="860.9" y="171.3" class="st15" width="1.1" height="8.4"/>
				</g>
				<g>
					<rect x="863.3" y="171.3" class="st15" width="1.1" height="8.4"/>
				</g>
			</g>
			<g>
				<rect x="867.7" y="171.3" class="st18" width="18.4" height="2.7"/>
			</g>
			<g>
				<rect x="867.5" y="176.9" class="st19" width="18.4" height="2.7"/>
			</g>
		</g>
		<g>
			<g>
				<g>
					<rect x="926.7" y="171.1" class="st15" width="1.1" height="8.4"/>
				</g>
				<g>
					<rect x="924.7" y="171.1" class="st15" width="1.1" height="8.4"/>
				</g>
				<g>
					<rect x="922.5" y="171.1" class="st15" width="1.1" height="8.4"/>
				</g>
				<g>
					<rect x="920.5" y="171.1" class="st15" width="1.1" height="8.4"/>
				</g>
				<g>
					<rect x="918.4" y="171.3" class="st15" width="1.1" height="8.4"/>
				</g>
				<g>
					<rect x="916.2" y="171.3" class="st15" width="1.1" height="8.4"/>
				</g>
			</g>
			<g>
				<rect x="894.6" y="171.3" class="st18" width="18.4" height="2.7"/>
			</g>
			<g>
				<rect x="894.6" y="176.9" class="st19" width="18.4" height="2.7"/>
			</g>
		</g>
		<g>
			<g>
				<g>
					<rect x="852.8" y="190.2" class="st15" width="1.1" height="8.4"/>
				</g>
				<g>
					<rect x="854.8" y="190.2" class="st15" width="1.1" height="8.4"/>
				</g>
				<g>
					<rect x="856.9" y="190.2" class="st15" width="1.1" height="8.4"/>
				</g>
				<g>
					<rect x="858.9" y="190.2" class="st15" width="1.1" height="8.4"/>
				</g>
				<g>
					<rect x="860.9" y="190.4" class="st15" width="1.1" height="8.4"/>
				</g>
				<g>
					<rect x="863.3" y="190.4" class="st15" width="1.1" height="8.4"/>
				</g>
			</g>
			<g>
				<rect x="867.7" y="190.4" class="st18" width="18.4" height="2.7"/>
			</g>
			<g>
				<rect x="867.5" y="195.8" class="st19" width="18.4" height="2.7"/>
			</g>
		</g>
		<g>
			<g>
				<g>
					<rect x="926.7" y="190.2" class="st15" width="1.1" height="8.4"/>
				</g>
				<g>
					<rect x="924.7" y="190.2" class="st15" width="1.1" height="8.4"/>
				</g>
				<g>
					<rect x="922.5" y="190.2" class="st15" width="1.1" height="8.4"/>
				</g>
				<g>
					<rect x="920.5" y="190.2" class="st15" width="1.1" height="8.4"/>
				</g>
				<g>
					<rect x="918.4" y="190.4" class="st15" width="1.1" height="8.4"/>
				</g>
				<g>
					<rect x="916.2" y="190.4" class="st15" width="1.1" height="8.4"/>
				</g>
			</g>
			<g>
				<rect x="894.6" y="190.4" class="st18" width="18.4" height="2.7"/>
			</g>
			<g>
				<rect x="894.6" y="195.8" class="st19" width="18.4" height="2.7"/>
			</g>
		</g>
		<g>
			<g>
				<g>
					<rect x="852.8" y="247.3" class="st15" width="1.1" height="8.4"/>
				</g>
				<g>
					<rect x="854.8" y="247.3" class="st15" width="1.1" height="8.4"/>
				</g>
				<g>
					<rect x="856.9" y="247.3" class="st15" width="1.1" height="8.4"/>
				</g>
				<g>
					<rect x="858.9" y="247.3" class="st15" width="1.1" height="8.4"/>
				</g>
				<g>
					<rect x="860.9" y="247.4" class="st15" width="1.1" height="8.4"/>
				</g>
				<g>
					<rect x="863.3" y="247.4" class="st15" width="1.1" height="8.4"/>
				</g>
			</g>
			<g>
				<rect x="867.7" y="247.4" class="st18" width="18.4" height="2.7"/>
			</g>
			<g>
				<rect x="867.5" y="253.1" class="st19" width="18.4" height="2.7"/>
			</g>
		</g>
		<g>
			<g>
				<g>
					<rect x="926.7" y="247.3" class="st15" width="1.1" height="8.4"/>
				</g>
				<g>
					<rect x="924.7" y="247.3" class="st15" width="1.1" height="8.4"/>
				</g>
				<g>
					<rect x="922.5" y="247.3" class="st15" width="1.1" height="8.4"/>
				</g>
				<g>
					<rect x="920.5" y="247.3" class="st15" width="1.1" height="8.4"/>
				</g>
				<g>
					<rect x="918.4" y="247.4" class="st15" width="1.1" height="8.4"/>
				</g>
				<g>
					<rect x="916.2" y="247.4" class="st15" width="1.1" height="8.4"/>
				</g>
			</g>
			<g>
				<rect x="894.6" y="247.4" class="st18" width="18.4" height="2.7"/>
			</g>
			<g>
				<rect x="894.6" y="253.1" class="st19" width="18.4" height="2.7"/>
			</g>
		</g>
		<g>
			<g>
				<g>
					<rect x="852.8" y="266.3" class="st15" width="1.1" height="8.4"/>
				</g>
				<g>
					<rect x="854.8" y="266.3" class="st15" width="1.1" height="8.4"/>
				</g>
				<g>
					<rect x="856.9" y="266.3" class="st15" width="1.1" height="8.4"/>
				</g>
				<g>
					<rect x="858.9" y="266.3" class="st15" width="1.1" height="8.4"/>
				</g>
				<g>
					<rect x="860.9" y="266.5" class="st15" width="1.1" height="8.4"/>
				</g>
				<g>
					<rect x="863.3" y="266.5" class="st15" width="1.1" height="8.4"/>
				</g>
			</g>
			<g>
				<rect x="867.7" y="266.5" class="st18" width="18.4" height="2.7"/>
			</g>
			<g>
				<rect x="867.5" y="272.2" class="st19" width="18.4" height="2.7"/>
			</g>
		</g>
		<g>
			<g>
				<g>
					<rect x="926.7" y="266.3" class="st15" width="1.1" height="8.4"/>
				</g>
				<g>
					<rect x="924.7" y="266.3" class="st15" width="1.1" height="8.4"/>
				</g>
				<g>
					<rect x="922.5" y="266.3" class="st15" width="1.1" height="8.4"/>
				</g>
				<g>
					<rect x="920.5" y="266.3" class="st15" width="1.1" height="8.4"/>
				</g>
				<g>
					<rect x="918.4" y="266.5" class="st15" width="1.1" height="8.4"/>
				</g>
				<g>
					<rect x="916.2" y="266.5" class="st15" width="1.1" height="8.4"/>
				</g>
			</g>
			<g>
				<rect x="894.6" y="266.5" class="st18" width="18.4" height="2.7"/>
			</g>
			<g>
				<rect x="894.6" y="272.2" class="st19" width="18.4" height="2.7"/>
			</g>
		</g>
		<g>
			<g>
				<g>
					<rect x="852.8" y="285.4" class="st15" width="1.1" height="8.4"/>
				</g>
				<g>
					<rect x="854.8" y="285.4" class="st15" width="1.1" height="8.4"/>
				</g>
				<g>
					<rect x="856.9" y="285.4" class="st15" width="1.1" height="8.4"/>
				</g>
				<g>
					<rect x="858.9" y="285.4" class="st15" width="1.1" height="8.4"/>
				</g>
				<g>
					<rect x="860.9" y="285.4" class="st15" width="1.1" height="8.4"/>
				</g>
				<g>
					<rect x="863.3" y="285.4" class="st15" width="1.1" height="8.4"/>
				</g>
			</g>
			<g>
				<rect x="867.7" y="285.4" class="st18" width="18.4" height="2.7"/>
			</g>
			<g>
				<rect x="867.5" y="291.1" class="st19" width="18.4" height="2.7"/>
			</g>
		</g>
		<g>
			<g>
				<g>
					<rect x="926.7" y="285.4" class="st15" width="1.1" height="8.4"/>
				</g>
				<g>
					<rect x="924.7" y="285.4" class="st15" width="1.1" height="8.4"/>
				</g>
				<g>
					<rect x="922.5" y="285.4" class="st15" width="1.1" height="8.4"/>
				</g>
				<g>
					<rect x="920.5" y="285.4" class="st15" width="1.1" height="8.4"/>
				</g>
				<g>
					<rect x="918.4" y="285.4" class="st15" width="1.1" height="8.4"/>
				</g>
				<g>
					<rect x="916.2" y="285.4" class="st15" width="1.1" height="8.4"/>
				</g>
			</g>
			<g>
				<rect x="894.6" y="285.4" class="st18" width="18.4" height="2.7"/>
			</g>
			<g>
				<rect x="894.6" y="291.1" class="st19" width="18.4" height="2.7"/>
			</g>
		</g>
		<rect x="867.8" y="112.1" class="st20" width="45.1" height="2.9"/>
		<rect x="867.7" y="131.1" class="st20" width="45.1" height="2.9"/>
		<rect x="867.8" y="207.3" class="st20" width="45.1" height="2.9"/>
		<rect x="867.7" y="226.4" class="st20" width="45.1" height="2.9"/>
	</g>
	<rect x="946.7" y="21.6" class="st15" width="2.9" height="343.1"/>
</g>
<g>
	<g>
		<g>
			<rect x="949.8" y="21.6" class="st14" width="113.2" height="343.1"/>
		</g>
		<rect x="962" y="34.3" class="st15" width="88.9" height="282.4"/>
		<rect x="962" y="34.3" class="st16" width="88.9" height="15.8"/>
		<rect x="962" y="53.2" class="st16" width="88.9" height="15.8"/>
		<rect x="962" y="72.3" class="st16" width="88.9" height="15.8"/>
		<rect x="962" y="91.3" class="st16" width="88.9" height="15.8"/>
		<rect x="962" y="110.4" class="st16" width="88.9" height="15.8"/>
		<rect x="962" y="129.5" class="st16" width="88.9" height="15.8"/>
		<rect x="962" y="148.4" class="st16" width="88.9" height="15.8"/>
		<rect x="962" y="167.5" class="st16" width="88.9" height="15.8"/>
		<rect x="962" y="186.6" class="st16" width="88.9" height="15.8"/>
		<rect x="962" y="205.6" class="st16" width="88.9" height="15.8"/>
		<rect x="962" y="224.5" class="st16" width="88.9" height="15.8"/>
		<rect x="962" y="243.6" class="st16" width="88.9" height="15.8"/>
		<rect x="962" y="262.7" class="st16" width="88.9" height="15.8"/>
		<rect x="962" y="281.8" class="st16" width="88.9" height="15.8"/>
		<rect x="962" y="300.9" class="st16" width="88.9" height="15.8"/>
		<g>
			<rect x="968.7" y="334.1" class="st15" width="2.7" height="30.5"/>
			<rect x="975.2" y="334.1" class="st15" width="2.7" height="30.5"/>
			<rect x="981.8" y="334.1" class="st15" width="2.7" height="30.5"/>
			<rect x="988.5" y="334.1" class="st15" width="2.7" height="30.5"/>
			<rect x="995" y="334.1" class="st15" width="2.7" height="30.5"/>
			<rect x="1001.6" y="334.1" class="st15" width="2.7" height="30.5"/>
			<rect x="1008.3" y="334.1" class="st15" width="2.7" height="30.5"/>
			<rect x="1014.9" y="334.1" class="st15" width="2.7" height="30.5"/>
			<rect x="1021.4" y="334.1" class="st15" width="2.7" height="30.5"/>
			<rect x="1028.1" y="334.1" class="st15" width="2.7" height="30.5"/>
			<rect x="1034.7" y="334.1" class="st15" width="2.7" height="30.5"/>
			<rect x="1041.4" y="334.1" class="st15" width="2.7" height="30.5"/>
		</g>
		<g>
			<g>
				<g>
					<rect x="966.3" y="38.5" class="st15" width="22" height="1.1"/>
				</g>
				<g>
					<rect x="966.3" y="40.6" class="st15" width="22" height="1.1"/>
				</g>
				<g>
					<rect x="966.3" y="42.8" class="st15" width="22" height="1.1"/>
				</g>
				<g>
					<rect x="966.3" y="45" class="st15" width="22" height="1.1"/>
				</g>
			</g>
			<g>
				<g>
					<rect x="1006.5" y="38.5" class="st15" width="1.1" height="7.6"/>
				</g>
				<g>
					<rect x="1008.7" y="38.5" class="st15" width="1.1" height="7.6"/>
				</g>
				<g>
					<rect x="1011" y="38.5" class="st15" width="1.1" height="7.6"/>
				</g>
				<g>
					<rect x="1013" y="38.5" class="st15" width="1.1" height="7.6"/>
				</g>
			</g>
			<g>
				<rect x="991.6" y="38.5" class="st19" width="11.4" height="7.6"/>
			</g>
			<g>
				<circle class="st21" cx="1019.6" cy="39.7" r="1.3"/>
			</g>
			<g>
				<circle class="st19" cx="1019.6" cy="44.8" r="1.3"/>
			</g>
			<g>
				<circle class="st22" cx="1025.9" cy="39.9" r="1.3"/>
			</g>
			<g>
				<circle class="st15" cx="1025.9" cy="44.8" r="1.3"/>
			</g>
			<g>
				<circle class="st19" cx="1032.3" cy="39.7" r="1.3"/>
			</g>
			<g>
				<circle class="st21" cx="1032.3" cy="44.8" r="1.3"/>
			</g>
			<g>
				<circle class="st22" cx="1038.7" cy="39.9" r="1.3"/>
			</g>
			<g>
				<circle class="st15" cx="1038.7" cy="44.8" r="1.3"/>
			</g>
			<g>
				<circle class="st15" cx="1045.2" cy="39.9" r="1.3"/>
			</g>
			<g>
				<circle class="st19" cx="1045.2" cy="44.8" r="1.3"/>
			</g>
		</g>
		<g>
			<g>
				<g>
					<rect x="966.3" y="57.4" class="st15" width="22" height="1.1"/>
				</g>
				<g>
					<rect x="966.3" y="59.5" class="st15" width="22" height="1.1"/>
				</g>
				<g>
					<rect x="966.3" y="61.7" class="st15" width="22" height="1.1"/>
				</g>
				<g>
					<rect x="966.3" y="63.9" class="st15" width="22" height="1.1"/>
				</g>
			</g>
			<g>
				<g>
					<rect x="1006.5" y="57.4" class="st15" width="1.1" height="7.6"/>
				</g>
				<g>
					<rect x="1008.7" y="57.4" class="st15" width="1.1" height="7.6"/>
				</g>
				<g>
					<rect x="1011" y="57.4" class="st15" width="1.1" height="7.6"/>
				</g>
				<g>
					<rect x="1013" y="57.4" class="st15" width="1.1" height="7.6"/>
				</g>
			</g>
			<g>
				<rect x="991.6" y="57.4" class="st19" width="11.4" height="7.6"/>
			</g>
			<g>
				<circle class="st21" cx="1019.6" cy="58.6" r="1.3"/>
			</g>
			<g>
				<circle class="st19" cx="1019.6" cy="63.5" r="1.3"/>
			</g>
			<g>
				<circle class="st22" cx="1025.9" cy="58.6" r="1.3"/>
			</g>
			<g>
				<circle class="st15" cx="1025.9" cy="63.7" r="1.3"/>
			</g>
			<g>
				<circle class="st19" cx="1032.3" cy="58.6" r="1.3"/>
			</g>
			<g>
				<circle class="st21" cx="1032.3" cy="63.7" r="1.3"/>
			</g>
			<g>
				<circle class="st22" cx="1038.7" cy="58.8" r="1.3"/>
			</g>
			<g>
				<circle class="st15" cx="1038.7" cy="63.7" r="1.3"/>
			</g>
			<g>
				<circle class="st15" cx="1045.2" cy="58.6" r="1.3"/>
			</g>
			<g>
				<circle class="st19" cx="1045.2" cy="63.7" r="1.3"/>
			</g>
		</g>
		<g>
			<g>
				<g>
					<rect x="966.3" y="76.3" class="st15" width="22" height="1.1"/>
				</g>
				<g>
					<rect x="966.3" y="78.4" class="st15" width="22" height="1.1"/>
				</g>
				<g>
					<rect x="966.3" y="80.6" class="st15" width="22" height="1.1"/>
				</g>
				<g>
					<rect x="966.3" y="82.8" class="st15" width="22" height="1.1"/>
				</g>
			</g>
			<g>
				<g>
					<rect x="1006.5" y="76.3" class="st15" width="1.1" height="7.6"/>
				</g>
				<g>
					<rect x="1008.7" y="76.3" class="st15" width="1.1" height="7.6"/>
				</g>
				<g>
					<rect x="1011" y="76.3" class="st15" width="1.1" height="7.6"/>
				</g>
				<g>
					<rect x="1013" y="76.3" class="st15" width="1.1" height="7.6"/>
				</g>
			</g>
			<g>
				<rect x="991.6" y="76.3" class="st19" width="11.4" height="7.6"/>
			</g>
			<g>
				<circle class="st21" cx="1019.6" cy="77.5" r="1.3"/>
			</g>
			<g>
				<circle class="st19" cx="1019.6" cy="82.4" r="1.3"/>
			</g>
			<g>
				<circle class="st22" cx="1025.9" cy="77.5" r="1.3"/>
			</g>
			<g>
				<circle class="st15" cx="1025.9" cy="82.4" r="1.3"/>
			</g>
			<g>
				<circle class="st19" cx="1032.3" cy="77.5" r="1.3"/>
			</g>
			<g>
				<circle class="st21" cx="1032.3" cy="82.4" r="1.3"/>
			</g>
			<g>
				<circle class="st22" cx="1038.7" cy="77.5" r="1.3"/>
			</g>
			<g>
				<circle class="st15" cx="1038.7" cy="82.6" r="1.3"/>
			</g>
			<g>
				<circle class="st15" cx="1045.2" cy="77.5" r="1.3"/>
			</g>
			<g>
				<circle class="st19" cx="1045.2" cy="82.4" r="1.3"/>
			</g>
		</g>
		<g>
			<g>
				<g>
					<rect x="966.3" y="95.2" class="st15" width="22" height="1.1"/>
				</g>
				<g>
					<rect x="966.3" y="97.2" class="st15" width="22" height="1.1"/>
				</g>
				<g>
					<rect x="966.3" y="99.5" class="st15" width="22" height="1.1"/>
				</g>
				<g>
					<rect x="966.3" y="101.7" class="st15" width="22" height="1.1"/>
				</g>
			</g>
			<g>
				<g>
					<rect x="1006.5" y="95.2" class="st15" width="1.1" height="7.6"/>
				</g>
				<g>
					<rect x="1008.7" y="95.2" class="st15" width="1.1" height="7.6"/>
				</g>
				<g>
					<rect x="1011" y="95.2" class="st15" width="1.1" height="7.6"/>
				</g>
				<g>
					<rect x="1013" y="95.2" class="st15" width="1.1" height="7.6"/>
				</g>
			</g>
			<g>
				<rect x="991.6" y="95.2" class="st19" width="11.4" height="7.6"/>
			</g>
			<g>
				<circle class="st21" cx="1019.6" cy="96.4" r="1.3"/>
			</g>
			<g>
				<circle class="st19" cx="1019.6" cy="101.3" r="1.3"/>
			</g>
			<g>
				<circle class="st22" cx="1025.9" cy="96.4" r="1.3"/>
			</g>
			<g>
				<circle class="st15" cx="1025.9" cy="101.3" r="1.3"/>
			</g>
			<g>
				<circle class="st19" cx="1032.3" cy="96.4" r="1.3"/>
			</g>
			<g>
				<circle class="st21" cx="1032.3" cy="101.3" r="1.3"/>
			</g>
			<g>
				<circle class="st22" cx="1038.7" cy="96.4" r="1.3"/>
			</g>
			<g>
				<circle class="st15" cx="1038.7" cy="101.3" r="1.3"/>
			</g>
			<g>
				<circle class="st15" cx="1045.2" cy="96.4" r="1.3"/>
			</g>
			<g>
				<circle class="st19" cx="1045.2" cy="101.3" r="1.3"/>
			</g>
		</g>
		<g>
			<g>
				<g>
					<rect x="966.3" y="151.7" class="st15" width="22" height="1.1"/>
				</g>
				<g>
					<rect x="966.3" y="153.9" class="st15" width="22" height="1.1"/>
				</g>
				<g>
					<rect x="966.3" y="156" class="st15" width="22" height="1.1"/>
				</g>
				<g>
					<rect x="966.3" y="158.2" class="st15" width="22" height="1.1"/>
				</g>
			</g>
			<g>
				<g>
					<rect x="1006.5" y="151.7" class="st15" width="1.1" height="7.6"/>
				</g>
				<g>
					<rect x="1008.7" y="151.7" class="st15" width="1.1" height="7.6"/>
				</g>
				<g>
					<rect x="1011" y="151.7" class="st15" width="1.1" height="7.6"/>
				</g>
				<g>
					<rect x="1013" y="151.7" class="st15" width="1.1" height="7.6"/>
				</g>
			</g>
			<g>
				<rect x="991.6" y="151.7" class="st19" width="11.4" height="7.6"/>
			</g>
			<g>
				<circle class="st21" cx="1019.6" cy="152.9" r="1.3"/>
			</g>
			<g>
				<circle class="st19" cx="1019.6" cy="157.8" r="1.3"/>
			</g>
			<g>
				<circle class="st22" cx="1025.9" cy="152.9" r="1.3"/>
			</g>
			<g>
				<circle class="st15" cx="1025.9" cy="158" r="1.3"/>
			</g>
			<g>
				<circle class="st19" cx="1032.3" cy="152.9" r="1.3"/>
			</g>
			<g>
				<circle class="st21" cx="1032.3" cy="157.8" r="1.3"/>
			</g>
			<g>
				<circle class="st22" cx="1038.7" cy="153.1" r="1.3"/>
			</g>
			<g>
				<circle class="st15" cx="1038.7" cy="158" r="1.3"/>
			</g>
			<g>
				<circle class="st15" cx="1045.2" cy="152.9" r="1.3"/>
			</g>
			<g>
				<circle class="st19" cx="1045.2" cy="158" r="1.3"/>
			</g>
		</g>
		<g>
			<g>
				<g>
					<rect x="966.3" y="170.6" class="st15" width="22" height="1.1"/>
				</g>
				<g>
					<rect x="966.3" y="172.8" class="st15" width="22" height="1.1"/>
				</g>
				<g>
					<rect x="966.3" y="174.9" class="st15" width="22" height="1.1"/>
				</g>
				<g>
					<rect x="966.3" y="177.1" class="st15" width="22" height="1.1"/>
				</g>
			</g>
			<g>
				<g>
					<rect x="1006.5" y="170.6" class="st15" width="1.1" height="7.6"/>
				</g>
				<g>
					<rect x="1008.7" y="170.6" class="st15" width="1.1" height="7.6"/>
				</g>
				<g>
					<rect x="1011" y="170.6" class="st15" width="1.1" height="7.6"/>
				</g>
				<g>
					<rect x="1013" y="170.6" class="st15" width="1.1" height="7.6"/>
				</g>
			</g>
			<g>
				<rect x="991.6" y="170.6" class="st19" width="11.4" height="7.6"/>
			</g>
			<g>
				<circle class="st21" cx="1019.6" cy="171.8" r="1.3"/>
			</g>
			<g>
				<circle class="st19" cx="1019.6" cy="176.7" r="1.3"/>
			</g>
			<g>
				<circle class="st22" cx="1025.9" cy="171.8" r="1.3"/>
			</g>
			<g>
				<circle class="st15" cx="1025.9" cy="176.7" r="1.3"/>
			</g>
			<g>
				<circle class="st19" cx="1032.3" cy="171.8" r="1.3"/>
			</g>
			<g>
				<circle class="st21" cx="1032.3" cy="176.7" r="1.3"/>
			</g>
			<g>
				<circle class="st22" cx="1038.7" cy="171.8" r="1.3"/>
			</g>
			<g>
				<circle class="st15" cx="1038.7" cy="176.9" r="1.3"/>
			</g>
			<g>
				<circle class="st15" cx="1045.2" cy="171.8" r="1.3"/>
			</g>
			<g>
				<circle class="st19" cx="1045.2" cy="176.7" r="1.3"/>
			</g>
		</g>
		<g>
			<g>
				<g>
					<rect x="966.3" y="189.5" class="st15" width="22" height="1.1"/>
				</g>
				<g>
					<rect x="966.3" y="191.5" class="st15" width="22" height="1.1"/>
				</g>
				<g>
					<rect x="966.3" y="193.8" class="st15" width="22" height="1.1"/>
				</g>
				<g>
					<rect x="966.3" y="196" class="st15" width="22" height="1.1"/>
				</g>
			</g>
			<g>
				<g>
					<rect x="1006.5" y="189.5" class="st15" width="1.1" height="7.6"/>
				</g>
				<g>
					<rect x="1008.7" y="189.5" class="st15" width="1.1" height="7.6"/>
				</g>
				<g>
					<rect x="1011" y="189.5" class="st15" width="1.1" height="7.6"/>
				</g>
				<g>
					<rect x="1013" y="189.5" class="st15" width="1.1" height="7.6"/>
				</g>
			</g>
			<g>
				<rect x="991.6" y="189.5" class="st19" width="11.4" height="7.6"/>
			</g>
			<g>
				<circle class="st21" cx="1019.6" cy="190.7" r="1.3"/>
			</g>
			<g>
				<circle class="st19" cx="1019.6" cy="195.6" r="1.3"/>
			</g>
			<g>
				<circle class="st22" cx="1025.9" cy="190.7" r="1.3"/>
			</g>
			<g>
				<circle class="st15" cx="1025.9" cy="195.6" r="1.3"/>
			</g>
			<g>
				<circle class="st19" cx="1032.3" cy="190.7" r="1.3"/>
			</g>
			<g>
				<circle class="st21" cx="1032.3" cy="195.6" r="1.3"/>
			</g>
			<g>
				<circle class="st22" cx="1038.7" cy="190.7" r="1.3"/>
			</g>
			<g>
				<circle class="st15" cx="1038.7" cy="195.6" r="1.3"/>
			</g>
			<g>
				<circle class="st15" cx="1045.2" cy="190.7" r="1.3"/>
			</g>
			<g>
				<circle class="st19" cx="1045.2" cy="195.6" r="1.3"/>
			</g>
		</g>
		<g>
			<g>
				<g>
					<rect x="966.3" y="246" class="st15" width="22" height="1.1"/>
				</g>
				<g>
					<rect x="966.3" y="248.2" class="st15" width="22" height="1.1"/>
				</g>
				<g>
					<rect x="966.3" y="250.3" class="st15" width="22" height="1.1"/>
				</g>
				<g>
					<rect x="966.3" y="252.5" class="st15" width="22" height="1.1"/>
				</g>
			</g>
			<g>
				<g>
					<rect x="1006.5" y="246" class="st15" width="1.1" height="7.6"/>
				</g>
				<g>
					<rect x="1008.7" y="246" class="st15" width="1.1" height="7.6"/>
				</g>
				<g>
					<rect x="1011" y="246" class="st15" width="1.1" height="7.6"/>
				</g>
				<g>
					<rect x="1013" y="246" class="st15" width="1.1" height="7.6"/>
				</g>
			</g>
			<g>
				<rect x="991.6" y="246" class="st19" width="11.4" height="7.6"/>
			</g>
			<g>
				<circle class="st21" cx="1019.6" cy="247.3" r="1.3"/>
			</g>
			<g>
				<circle class="st19" cx="1019.6" cy="252.2" r="1.3"/>
			</g>
			<g>
				<circle class="st22" cx="1025.9" cy="247.3" r="1.3"/>
			</g>
			<g>
				<circle class="st15" cx="1025.9" cy="252.3" r="1.3"/>
			</g>
			<g>
				<circle class="st19" cx="1032.3" cy="247.3" r="1.3"/>
			</g>
			<g>
				<circle class="st21" cx="1032.3" cy="252.2" r="1.3"/>
			</g>
			<g>
				<circle class="st22" cx="1038.7" cy="247.3" r="1.3"/>
			</g>
			<g>
				<circle class="st15" cx="1038.7" cy="252.3" r="1.3"/>
			</g>
			<g>
				<circle class="st15" cx="1045.2" cy="247.3" r="1.3"/>
			</g>
			<g>
				<circle class="st19" cx="1045.2" cy="252.3" r="1.3"/>
			</g>
		</g>
		<g>
			<g>
				<g>
					<rect x="966.3" y="264.9" class="st15" width="22" height="1.1"/>
				</g>
				<g>
					<rect x="966.3" y="267.1" class="st15" width="22" height="1.1"/>
				</g>
				<g>
					<rect x="966.3" y="269.2" class="st15" width="22" height="1.1"/>
				</g>
				<g>
					<rect x="966.3" y="271.4" class="st15" width="22" height="1.1"/>
				</g>
			</g>
			<g>
				<g>
					<rect x="1006.5" y="264.9" class="st15" width="1.1" height="7.6"/>
				</g>
				<g>
					<rect x="1008.7" y="264.9" class="st15" width="1.1" height="7.6"/>
				</g>
				<g>
					<rect x="1011" y="264.9" class="st15" width="1.1" height="7.6"/>
				</g>
				<g>
					<rect x="1013" y="264.9" class="st15" width="1.1" height="7.6"/>
				</g>
			</g>
			<g>
				<rect x="991.6" y="264.9" class="st19" width="11.4" height="7.6"/>
			</g>
			<g>
				<circle class="st21" cx="1019.6" cy="266.2" r="1.3"/>
			</g>
			<g>
				<circle class="st19" cx="1019.6" cy="271.1" r="1.3"/>
			</g>
			<g>
				<circle class="st22" cx="1025.9" cy="266.2" r="1.3"/>
			</g>
			<g>
				<circle class="st15" cx="1025.9" cy="271.1" r="1.3"/>
			</g>
			<g>
				<circle class="st19" cx="1032.3" cy="266.2" r="1.3"/>
			</g>
			<g>
				<circle class="st21" cx="1032.3" cy="271.1" r="1.3"/>
			</g>
			<g>
				<circle class="st22" cx="1038.7" cy="266.2" r="1.3"/>
			</g>
			<g>
				<circle class="st15" cx="1038.7" cy="271.1" r="1.3"/>
			</g>
			<g>
				<circle class="st15" cx="1045.2" cy="266.2" r="1.3"/>
			</g>
			<g>
				<circle class="st19" cx="1045.2" cy="271.1" r="1.3"/>
			</g>
		</g>
		<g>
			<g>
				<g>
					<rect x="966.3" y="283.6" class="st15" width="22" height="1.1"/>
				</g>
				<g>
					<rect x="966.3" y="285.8" class="st15" width="22" height="1.1"/>
				</g>
				<g>
					<rect x="966.3" y="288.1" class="st15" width="22" height="1.1"/>
				</g>
				<g>
					<rect x="966.3" y="290.3" class="st15" width="22" height="1.1"/>
				</g>
			</g>
			<g>
				<g>
					<rect x="1006.5" y="283.8" class="st15" width="1.1" height="7.6"/>
				</g>
				<g>
					<rect x="1008.7" y="283.8" class="st15" width="1.1" height="7.6"/>
				</g>
				<g>
					<rect x="1011" y="283.8" class="st15" width="1.1" height="7.6"/>
				</g>
				<g>
					<rect x="1013" y="283.8" class="st15" width="1.1" height="7.6"/>
				</g>
			</g>
			<g>
				<rect x="991.6" y="283.6" class="st19" width="11.4" height="7.6"/>
			</g>
			<g>
				<circle class="st21" cx="1019.6" cy="285.1" r="1.3"/>
			</g>
			<g>
				<circle class="st19" cx="1019.6" cy="290" r="1.3"/>
			</g>
			<g>
				<circle class="st22" cx="1025.9" cy="285.1" r="1.3"/>
			</g>
			<g>
				<circle class="st15" cx="1025.9" cy="290" r="1.3"/>
			</g>
			<g>
				<circle class="st19" cx="1032.3" cy="285.1" r="1.3"/>
			</g>
			<g>
				<circle class="st21" cx="1032.3" cy="290" r="1.3"/>
			</g>
			<g>
				<circle class="st22" cx="1038.7" cy="285.1" r="1.3"/>
			</g>
			<g>
				<circle class="st15" cx="1038.7" cy="290" r="1.3"/>
			</g>
			<g>
				<circle class="st15" cx="1045.2" cy="285.1" r="1.3"/>
			</g>
			<g>
				<circle class="st19" cx="1045.2" cy="290" r="1.3"/>
			</g>
		</g>
		<g>
			<rect x="974" y="110.4" class="st18" width="18.2" height="3.1"/>
			<rect x="997.4" y="110.4" class="st23" width="18.2" height="3.1"/>
			<rect x="1020.9" y="110.4" class="st18" width="18.2" height="3.1"/>
		</g>
		<g>
			<rect x="973.8" y="129.5" class="st18" width="18.2" height="3.1"/>
			<rect x="997.2" y="129.5" class="st23" width="18.2" height="3.1"/>
			<rect x="1020.7" y="129.5" class="st18" width="18.2" height="3.1"/>
		</g>
		<g>
			<rect x="974" y="205.6" class="st18" width="18.2" height="3.1"/>
			<rect x="997.4" y="205.6" class="st23" width="18.2" height="3.1"/>
			<rect x="1020.9" y="205.6" class="st18" width="18.2" height="3.1"/>
		</g>
		<g>
			<rect x="973.8" y="224.5" class="st18" width="18.2" height="3.1"/>
			<rect x="997.2" y="224.5" class="st23" width="18.2" height="3.1"/>
			<rect x="1020.7" y="224.5" class="st18" width="18.2" height="3.1"/>
		</g>
		<g>
			<rect x="973.8" y="300.9" class="st18" width="18.2" height="3.1"/>
			<rect x="997.2" y="300.9" class="st23" width="18.2" height="3.1"/>
			<rect x="1020.7" y="300.9" class="st18" width="18.2" height="3.1"/>
		</g>
		<rect x="962" y="316.7" class="st15" width="88.9" height="8.2"/>
	</g>
</g>
<g>
	<g>
		<path class="st24" d="M1007,325.2h171.4V204.3c0-3.3-2.7-6-6-6H1013c-3.3,0-6,2.7-6,6V325.2z"/>
	</g>
	<g>
		<linearGradient id="SVGID_1_" gradientUnits="userSpaceOnUse" x1="1013.07" y1="253.2966" x2="1172.036" y2="253.2966">
			<stop  offset="0" style="stop-color:#404B61"/>
			<stop  offset="0.486" style="stop-color:#3C4860"/>
			<stop  offset="1" style="stop-color:#2F3E5C"/>
		</linearGradient>
		<rect x="1013.1" y="204.5" class="st25" width="159" height="97.7"/>
	</g>
	<g>
		<rect x="1024.5" y="288.1" class="st7" width="16" height="1.8"/>
	</g>
	<polygon class="st26" points="1178.4,306.9 1092.7,306.9 1007.1,306.9 988.3,376.9 1093.3,376.9 1197.1,376.9 	"/>
	<path class="st27" d="M1013.6,319.2h10.5c0.4,0,0.8,0.3,0.7,0.7l-1,4.6c-0.1,0.3-0.4,0.5-0.7,0.5h-10.7c-0.4,0-0.8-0.4-0.7-0.7
		l1.2-4.6C1012.9,319.4,1013.2,319.2,1013.6,319.2z"/>
	<polygon class="st27" points="1028.9,319.2 1036.9,319.2 1035.8,324.9 1027.7,324.9 	"/>
	<polygon class="st27" points="1040.8,319.2 1048.8,319.2 1048,324.9 1039.9,324.9 	"/>
	<polygon class="st27" points="1052.8,319.2 1060.7,319.2 1060.1,324.9 1052,324.9 	"/>
	<polygon class="st27" points="1064.7,319.2 1072.7,319.2 1072.3,324.9 1064.2,324.9 	"/>
	<polygon class="st27" points="1076.6,319.2 1084.6,319.2 1084.5,324.9 1076.3,324.9 	"/>
	<polygon class="st27" points="1172.2,319.2 1160.2,319.2 1161.5,324.9 1173.7,324.9 	"/>
	<polygon class="st27" points="1156.2,319.2 1148.3,319.2 1149.4,324.9 1157.5,324.9 	"/>
	<polygon class="st27" points="1144.3,319.2 1136.4,319.2 1137.2,324.9 1145.3,324.9 	"/>
	<polygon class="st27" points="1132.4,319.2 1124.4,319.2 1125,324.9 1133.1,324.9 	"/>
	<polygon class="st27" points="1120.4,319.2 1112.5,319.2 1112.9,324.9 1121,324.9 	"/>
	<polygon class="st27" points="1108.5,319.2 1100.5,319.2 1100.7,324.9 1108.8,324.9 	"/>
	<polygon class="st27" points="1088.6,319.2 1096.5,319.2 1096.7,324.9 1088.6,324.9 	"/>
	<polygon class="st27" points="1010.1,329.2 1026.7,329.2 1025.7,335.2 1008.8,335.2 	"/>
	<polygon class="st27" points="1174.8,329.2 1154.2,329.2 1155.4,335.2 1176.3,335.2 	"/>
	<polygon class="st27" points="1150.1,329.2 1141.9,329.2 1142.8,335.2 1151.2,335.2 	"/>
	<polygon class="st27" points="1137.8,329.2 1129.5,329.2 1130.2,335.2 1138.6,335.2 	"/>
	<polygon class="st27" points="1125.4,329.2 1117.2,329.2 1117.7,335.2 1126.1,335.2 	"/>
	<polygon class="st27" points="1113.1,329.2 1104.9,329.2 1105.1,335.2 1113.5,335.2 	"/>
	<polygon class="st27" points="1007.6,339.9 1024.6,339.9 1023.3,345.8 1006,345.8 	"/>
	<polygon class="st27" points="1028.8,339.9 1037.3,339.9 1036.3,345.8 1027.7,345.8 	"/>
	<polygon class="st27" points="1041.6,339.9 1050.1,339.9 1105.3,339.9 1105.5,345.8 1040.6,345.8 	"/>
	<polygon class="st27" points="1109.6,339.9 1118.1,339.9 1118.5,345.8 1109.9,345.8 	"/>
	<polygon class="st27" points="1122.3,339.9 1130.8,339.9 1131.5,345.8 1122.9,345.8 	"/>
	<polygon class="st27" points="1135.1,339.9 1143.6,339.9 1144.5,345.8 1135.8,345.8 	"/>
	<polygon class="st27" points="1147.8,339.9 1156.3,339.9 1157.5,345.8 1148.8,345.8 	"/>
	<polygon class="st27" points="1160.6,339.9 1177.6,339.9 1179.1,345.8 1161.8,345.8 	"/>
	<polygon class="st27" points="1100.8,329.2 1092.6,329.2 1092.6,335.2 1100.9,335.2 	"/>
	<polygon class="st27" points="1088.5,329.2 1080.2,329.2 1080,335.2 1088.4,335.2 	"/>
	<polygon class="st27" points="1076.1,329.2 1067.9,329.2 1067.4,335.2 1075.8,335.2 	"/>
	<polygon class="st27" points="1063.8,329.2 1055.6,329.2 1054.9,335.2 1063.2,335.2 	"/>
	<polygon class="st27" points="1051.5,329.2 1043.2,329.2 1042.3,335.2 1050.7,335.2 	"/>
	<polygon class="st27" points="1039.1,329.2 1030.9,329.2 1029.7,335.2 1038.1,335.2 	"/>
	<polygon class="st27" points="1013.9,315.5 1015.3,310.4 1019.2,310.4 1017.9,315.5 	"/>
	<polygon class="st27" points="1023,310.4 1030.7,310.4 1029.7,315.5 1021.8,315.5 	"/>
	<polygon class="st27" points="1034.6,310.4 1042.3,310.4 1041.5,315.5 1033.6,315.5 	"/>
	<polygon class="st27" points="1046.2,310.4 1053.9,310.4 1053.3,315.5 1045.4,315.5 	"/>
	<polygon class="st27" points="1057.8,310.4 1065.5,310.4 1065,315.5 1057.2,315.5 	"/>
	<polygon class="st27" points="1069.4,310.4 1077.1,310.4 1076.8,315.5 1069,315.5 	"/>
	<polygon class="st27" points="1081,310.4 1088.7,310.4 1088.6,315.5 1080.8,315.5 	"/>
	<polygon class="st27" points="1092.6,310.4 1100.3,310.4 1100.4,315.5 1092.6,315.5 	"/>
	<polygon class="st27" points="1104.2,310.4 1111.9,310.4 1112.2,315.5 1104.4,315.5 	"/>
	<polygon class="st27" points="1115.7,310.4 1123.5,310.4 1124,315.5 1116.2,315.5 	"/>
	<polygon class="st27" points="1127.3,310.4 1135.1,310.4 1135.8,315.5 1127.9,315.5 	"/>
	<polygon class="st27" points="1138.9,310.4 1146.7,310.4 1147.6,315.5 1139.7,315.5 	"/>
	<polygon class="st27" points="1150.5,310.4 1158.2,310.4 1159.4,315.5 1151.5,315.5 	"/>
	<polygon class="st27" points="1162.1,310.4 1169.8,310.4 1171.2,315.5 1163.3,315.5 	"/>
	<path class="st24" d="M1191.7,382.4H993.8c-3,0-5.5-2.4-5.5-5.5l0,0h208.8l0,0C1197.1,380,1194.7,382.4,1191.7,382.4z"/>
	<path class="st24" d="M1117,354.3c-0.2-1.2-1.3-2.1-2.5-2.1h-21.8H1071c-1.3,0-2.3,0.9-2.5,2.1l-2.7,16.4c-0.3,1.6,0.9,3,2.5,3
		h24.5h24.5c1.6,0,2.8-1.4,2.5-3L1117,354.3z"/>
	<g>
		<g>
			<rect x="1023.8" y="212.8" class="st28" width="17.7" height="1.8"/>
		</g>
		<g>
			<rect x="1046.5" y="226.4" class="st28" width="12.8" height="1.8"/>
		</g>
		<g>
			<rect x="1061.2" y="226.4" class="st7" width="8.5" height="1.8"/>
		</g>
		<g>
			<rect x="1024" y="260.7" class="st7" width="8.5" height="1.8"/>
		</g>
		<g>
			<rect x="1071.4" y="226.4" class="st28" width="20.5" height="1.8"/>
		</g>
		<g>
			<rect x="1024" y="253.9" class="st28" width="13.2" height="1.8"/>
		</g>
		<g>
			<rect x="1042.4" y="267.6" class="st28" width="8" height="1.8"/>
		</g>
		<g>
			<rect x="1024" y="267.6" class="st7" width="15.9" height="1.8"/>
		</g>
		<g>
			<rect x="1024" y="274.4" class="st28" width="8.8" height="1.8"/>
		</g>
		<g>
			<rect x="1045" y="212.8" class="st0" width="12.6" height="1.8"/>
		</g>
		<g>
			<rect x="1045" y="233.2" class="st7" width="12.6" height="1.8"/>
		</g>
		<g>
			<rect x="1038.7" y="240.1" class="st28" width="5.4" height="1.8"/>
		</g>
		<g>
			<rect x="1033.3" y="247" class="st0" width="12.1" height="1.8"/>
		</g>
		<g>
			<rect x="1047.2" y="247" class="st7" width="16.7" height="1.8"/>
		</g>
		<g>
			<rect x="1024" y="240.1" class="st7" width="12.6" height="1.8"/>
		</g>
		<g>
			<rect x="1024" y="247" class="st7" width="7.5" height="1.8"/>
		</g>
		<g>
			<rect x="1046.6" y="240.1" class="st29" width="7" height="1.8"/>
		</g>
		<g>
			<rect x="1024.2" y="281.2" class="st29" width="7" height="1.8"/>
		</g>
		<g>
			<rect x="1024" y="226.4" class="st0" width="12.6" height="1.8"/>
		</g>
		<g>
			<rect x="1035.1" y="260.7" class="st0" width="12.6" height="1.8"/>
		</g>
		<g>
			<rect x="1035.2" y="274.4" class="st0" width="12.6" height="1.8"/>
		</g>
		<g>
			<rect x="1057.6" y="274.4" class="st0" width="12.6" height="1.8"/>
		</g>
		<g>
			<rect x="1024" y="233.2" class="st0" width="17.9" height="1.8"/>
		</g>
		<g>
			<rect x="1107.9" y="212.8" class="st0" width="12.6" height="1.8"/>
		</g>
		<g>
			<rect x="1063.1" y="281.2" class="st0" width="12.6" height="1.8"/>
		</g>
		<g>
			<rect x="1124.4" y="212.8" class="st0" width="8.4" height="1.8"/>
		</g>
		<g>
			<rect x="1152.9" y="219.6" class="st0" width="8.4" height="1.8"/>
		</g>
		<g>
			<rect x="1060.9" y="212.8" class="st7" width="16" height="1.8"/>
		</g>
		<g>
			<rect x="1123.3" y="219.6" class="st7" width="16" height="1.8"/>
		</g>
		<g>
			<rect x="1103.7" y="226.4" class="st7" width="16" height="1.8"/>
		</g>
		<g>
			<rect x="1082.8" y="233.2" class="st7" width="16" height="1.8"/>
		</g>
		<g>
			<rect x="1121.7" y="226.4" class="st0" width="11.4" height="1.8"/>
		</g>
		<g>
			<rect x="1088.8" y="212.8" class="st29" width="16" height="1.8"/>
		</g>
		<g>
			<rect x="1070.5" y="233.2" class="st29" width="9.4" height="1.8"/>
		</g>
		<g>
			<rect x="1063.1" y="260.8" class="st29" width="9.4" height="1.8"/>
		</g>
		<g>
			<rect x="1079.9" y="212.8" class="st28" width="5.9" height="1.8"/>
		</g>
		<g>
			<rect x="1060.9" y="233.2" class="st28" width="5.9" height="1.8"/>
		</g>
		<g>
			<rect x="1143.2" y="219.6" class="st28" width="5.9" height="1.8"/>
		</g>
		<g>
			<rect x="1023.8" y="219.6" class="st7" width="9.2" height="1.8"/>
		</g>
		<g>
			<rect x="1048.3" y="253.9" class="st7" width="7.2" height="1.8"/>
		</g>
		<g>
			<rect x="1035.2" y="219.6" class="st7" width="3" height="1.8"/>
		</g>
		<g>
			<rect x="1096" y="219.6" class="st28" width="24.5" height="1.8"/>
		</g>
		<g>
			<rect x="1072.5" y="274.4" class="st28" width="24.5" height="1.8"/>
		</g>
		<g>
			<rect x="1040.4" y="219.6" class="st29" width="3" height="1.8"/>
		</g>
		<g>
			<rect x="1085.8" y="219.6" class="st7" width="8" height="1.8"/>
		</g>
		<g>
			<rect x="1093.8" y="226.4" class="st29" width="8" height="1.8"/>
		</g>
		<g>
			<rect x="1052.6" y="281.2" class="st29" width="8" height="1.8"/>
		</g>
		<g>
			<rect x="1066.6" y="219.6" class="st7" width="17" height="1.8"/>
		</g>
		<g>
			<rect x="1050.7" y="260.8" class="st7" width="10" height="1.8"/>
		</g>
		<g>
			<rect x="1050.1" y="274.4" class="st7" width="5" height="1.8"/>
		</g>
		<g>
			<rect x="1058.3" y="219.6" class="st0" width="5.9" height="1.8"/>
		</g>
		<g>
			<rect x="1038.6" y="226.4" class="st29" width="5.9" height="1.8"/>
		</g>
		<g>
			<rect x="1039.7" y="253.9" class="st29" width="5.9" height="1.8"/>
		</g>
		<g>
			<rect x="1045.9" y="219.6" class="st7" width="10.2" height="1.8"/>
		</g>
	</g>
</g>
<g>
	<g>
		<g>
			<g>
				<path class="st0" d="M1386.1-25c-23.9,0-43.3-19.4-43.3-43.4h2.3c0,22.6,18.4,41,41,41c22.6,0,41-18.4,41-41
					c0-22.6-18.4-41-41-41v-2.3c23.9,0,43.3,19.4,43.3,43.3C1429.4-44.5,1410-25,1386.1-25z M1386.1-31.1
					c-20.6,0-37.3-16.7-37.3-37.3c0-20.6,16.7-37.3,37.3-37.3c20.6,0,37.3,16.7,37.3,37.3h-2.3c0-19.3-15.7-35-35-35
					c-19.3,0-35,15.7-35,35c0,19.3,15.7,35,35,35V-31.1z"/>
			</g>
		</g>
	</g>
	<g>
		<polygon class="st0" points="1380.8,-54 1365.1,-69.7 1366.8,-71.3 1380.8,-57.3 1405.4,-81.9 1407,-80.3 		"/>
	</g>
</g>
<g>
	<g>
		<g>
			<path class="st30" d="M1378.5,14.6h-71.3c-4.1,0-7.8,3.4-7.8,7.8v162.2c0,4.1,3.4,7.8,7.8,7.8h127.4c4.1,0,7.8-3.4,7.8-7.8V22.1
				c0-4.1-3.4-7.8-7.8-7.8L1378.5,14.6z"/>
			<path class="st27" d="M1424.2,25.4h-107c-3.6,0-6.5,2.8-6.5,6.5v142.9c0,3.6,2.8,6.5,6.5,6.5h107c3.6,0,6.5-2.8,6.5-6.5V31.9
				C1430.7,28.3,1427.8,25.4,1424.2,25.4z"/>
			<path class="st31" d="M1384.4,6.6c0-7.5-5.9-13.4-13.4-13.4s-13.4,5.9-13.4,13.4h-29.7v27.1h86.3V6.6H1384.4z"/>
			<path class="st32" d="M1353.7,122.1h-25.3c-3.1,0-5.4-2.3-5.4-5.4V91.3c0-3.1,2.3-5.4,5.4-5.4h25.3c3.1,0,5.4,2.3,5.4,5.4v25.3
				C1359.1,119.7,1356.8,122.1,1353.7,122.1L1353.7,122.1z M1328.4,89c-1,0-2.1,0.8-2.1,2.1v25.3c0,1,0.8,2.1,2.1,2.1h25.3
				c1,0,2.1-0.8,2.1-2.1V91c0-1-0.8-2.1-2.1-2.1H1328.4z"/>
			<path class="st32" d="M1353.7,164.4h-25.3c-3.1,0-5.4-2.3-5.4-5.4v-25.6c0-3.1,2.3-5.4,5.4-5.4h25.3c3.1,0,5.4,2.3,5.4,5.4v25.3
				C1359.1,161.8,1356.8,164.4,1353.7,164.4z M1328.4,131.4c-1,0-2.1,0.8-2.1,2.1V159c0,1,0.8,2.1,2.1,2.1h25.3c1,0,2.1-0.8,2.1-2.1
				v-25.6c0-1-0.8-2.1-2.1-2.1H1328.4z"/>
			<rect x="1327.6" y="25.4" class="st33" width="86.3" height="8"/>
			<rect x="1367.1" y="46.4" class="st32" width="20.9" height="3.9"/>
			<rect x="1367.1" y="56.4" class="st32" width="54.5" height="3.9"/>
			<rect x="1367.1" y="66" class="st32" width="54.5" height="3.9"/>
			<rect x="1367.1" y="75.8" class="st32" width="54.5" height="3.9"/>
			<rect x="1367.1" y="98.8" class="st32" width="54.5" height="3.9"/>
			<rect x="1367.1" y="108.4" class="st32" width="54.5" height="3.9"/>
			<rect x="1367.1" y="118.2" class="st32" width="54.5" height="3.9"/>
			<rect x="1367.1" y="140.9" class="st32" width="54.5" height="3.9"/>
			<rect x="1367.1" y="150.7" class="st32" width="54.5" height="3.9"/>
			<rect x="1367.1" y="160.3" class="st32" width="54.5" height="3.9"/>
			<rect x="1367.1" y="88.7" class="st32" width="20.9" height="3.9"/>
			<rect x="1367.1" y="130.8" class="st32" width="20.9" height="3.9"/>
			<path class="st13" d="M1339.2,113.8l-10.3-9.8l3.9-3.9l6.2,5.9l10.3-10.6l3.9,3.9L1339.2,113.8z"/>
			<path class="st32" d="M1353.7,79.7h-25.3c-3.1,0-5.4-2.3-5.4-5.4V48.9c0-3.1,2.3-5.4,5.4-5.4h25.3c3.1,0,5.4,2.3,5.4,5.4v25.3
				C1359.1,77.4,1356.8,79.7,1353.7,79.7z M1328.4,46.9c-1,0-2.1,0.8-2.1,2.1v25.3c0,1,0.8,2.1,2.1,2.1h25.3c1,0,2.1-0.8,2.1-2.1
				V48.9c0-1-0.8-2.1-2.1-2.1H1328.4z"/>
		</g>
		<path class="st13" d="M1338.9,71.4l-10.3-9.8l3.9-3.9l6.2,5.9l10.3-10.6l3.9,3.9L1338.9,71.4z"/>
		<path class="st13" d="M1338.9,155.9l-10.3-9.8l3.9-3.9l6.2,5.9l10.3-10.6l3.9,3.9L1338.9,155.9z"/>
	</g>
	<g>
		<g>
			<g>
				<path class="st34" d="M1390.6,144c0,0-2.7-4.7,1.6-17.4c4.1-12.3,18.5-11.1,23-3.3c4.6,7.8,3,12.7-3.7,21.6
					C1404.8,153.8,1393.4,148,1390.6,144z"/>
			</g>
		</g>
		<g>
			<g>
				<path class="st34" d="M1423.9,362c0,0,0.7,5.2,0.8,6c0.1,0.8,7.9-0.5,7.9-0.5l0.6-6.2C1433.2,361.3,1424.9,361.3,1423.9,362z"/>
			</g>
		</g>
		<g>
			<g>
				<path class="st35" d="M1424.6,367.3c0,0-2.5,3.1-4.9,4.5c-2.4,1.4-6.2,1.9-7.6,3.3c-1,1-3.7,5.4,6.2,5.3
					c9.9-0.1,14.7,0.6,15.8-1.1c1.1-1.7-1.5-12.4-1.5-12.4S1430.2,367.7,1424.6,367.3z"/>
			</g>
		</g>
		<g>
			<g>
				<path class="st34" d="M1369.9,362c0,0,0.7,5.2,0.8,6c0.1,0.8,7.9-0.5,7.9-0.5l0.6-6.2C1379.2,361.3,1370.8,361.3,1369.9,362z"/>
			</g>
		</g>
		<g>
			<g>
				<path class="st35" d="M1370.6,367.3c0,0-2.5,3.1-4.9,4.5c-2.4,1.4-11.2,2.5-12.6,3.9c-1,1-2.7,5.1,11.3,4.7
					c9.9-0.3,14.7,0.6,15.8-1.1c1.1-1.7-1.5-12.4-1.5-12.4S1375.5,367.5,1370.6,367.3z"/>
			</g>
		</g>
		<g>
			<g>
				<path class="st36" d="M1421.3,232.4c0,0,4,12.4,3.5,23.2c-0.5,10.7,2.1,22.5,3.1,33.6c1.2,12.5,6,42,6.2,48.7
					c0.2,6.7-0.8,28-0.8,28l-9.7,0.2c0,0-8.1-51.7-10.3-56.9c-2.1-5.3-12.6-42.9-12.9-47.1C1400.1,257.9,1421.3,232.4,1421.3,232.4z
					"/>
			</g>
		</g>
		<g>
			<g>
				<path class="st36" d="M1381.1,231.1c0,0-5.9,32.9-6.6,39.5c-0.7,6.6-1.2,31.8-1.5,35.9c-0.4,4.1-2.3,53.7-4.2,59.8h10.8
					c0,0,11.1-36,11.1-53.1c0-17,7.3-37.1,12.1-48.3c4.7-11.2,15.6-11.5,18.5-32.4C1421.3,232.4,1385,224.5,1381.1,231.1z"/>
			</g>
		</g>
		<g>
			<g>
				<path class="st34" d="M1394.5,147.3c0,0,1.2,3.5,0,6.1c-1.2,2.5,15.6,1,15.6,1s-0.8-5.2,1.4-9.5
					C1413.7,140.6,1394.5,147.3,1394.5,147.3z"/>
			</g>
		</g>
		<g>
			<g>
				<path class="st37" d="M1422.1,235.1c0,0-6,6.2-41.5-1l0.5-3l40.3,1.5L1422.1,235.1z"/>
			</g>
		</g>
		<g>
			<g>
				<path class="st34" d="M1392,154.2c0,0-6.2,0.6-8,1c-1.8,0.3-13.7-2.1-16.2-2.4c-2.4-0.3-12.9-7.4-13.2-8.2
					c-0.3-0.8-6.4-16.1-6.7-19.4c-0.3-3.3-5.9-1.6-5.4,0.7c0.9,4.2,2,14.5,2.6,17.5c0.7,3.2,2.5,10.5,3.5,11.4
					c1,0.9,10.4,8,19.6,11.1c9.2,3,16.1,7.5,16.1,7.5h45.4c0,0,17.6-25.2,18-29c0.4-3.8-12.3-29-14.9-32.2c-2.5-3.2-6.2,1-6.2,1
					s7.6,22.3,8.6,25.4c1,3.2-8.8,17.1-11.5,17.1c-2.7,0-9.6-0.8-12.7-1c-3.1-0.1-6.3-1.5-6.3-1.5L1392,154.2z"/>
			</g>
		</g>
		<g>
			<g>
				<path class="st38" d="M1372.4,171.1c0,0,5.6,3.7,6.1,10c0.5,6.3,2.5,16.3,3.5,19.8c1,3.4-0.9,28.2-1.1,30
					c-0.3,1.8,35.1,6,40.5,1.8c0,0,1.5-23.2,2.2-29.8c0.6-6.6,3.7-22.5,4.7-24.7c1-2.2,13.3-19.4,13.8-21.7c0,0-6.4-10.1-10.9-10.3
					c0,0-7.2,8.5-9.6,8.9c-2.4,0.4-16.8-2.3-16.8-2.3c0,0-1.6,2.2-10-0.4c0,0-10,1.1-11.6,1.3c-2,0.3-15.7-1.7-15.7-1.7
					s-5.5,9.3-4.5,14L1372.4,171.1z"/>
			</g>
		</g>
		<g>
			<g>
				<path class="st34" d="M1348.2,127.2c0,0-1.2-5.9,0.3-7.6c0.8-1,2.9-3.5,3.1-3.9c0.2-0.4,2.4-1.6,2.4-2.2c0-0.6-2.1-1.4-4,0.4
					c-1.9,1.7-3,2.1-3.8,1.9c-0.7-0.2-1.8-6.4-1.9-7.9c-0.1-1.5-0.7-5.6-1.7-5.3c-1,0.3-0.9,2.1-0.9,2.1s-1.1-3.1-1.9-2.5
					c-0.7,0.6-0.7,2.1-0.7,2.1s-1.4-1.7-1.8-0.5c-0.4,1.3,0,2.4,0,2.4s-1.4-0.8-1.5,1.2c-0.1,2,0.4,7.7,1.4,9.8
					c1,2.1,4.9,7.4,5.3,9.5C1343.1,128.7,1348.2,127.2,1348.2,127.2z"/>
			</g>
		</g>
		<g>
			<g>
				<path class="st34" d="M1428,116.9c0,0-4.2-7.1-5.7-7.7c-1.4-0.6-3.5-1-5.2-2.3c-1.8-1.3-4.1-2.3-4-2.7c0.1-0.4,2.2-0.3,4.5,0.7
					c2.2,1,3.2,0.5,3.4,0c0.2-0.5-1.2-4.1-1.9-4.9c-0.7-0.8-5.5-5.7-4.7-6.4c0.8-0.7,3.9,1.9,4.4,2.5c0,0-2.5-5.2-1.5-5.5
					c1-0.3,2.8,1.6,2.8,1.6s-0.2-4.5,4.6,2.8c0,0-1-2.4,0.5-1.6c1.5,0.8,2.9,5.3,3.4,7.6c0.5,2.3,2.6,9.5,4.4,11.3
					C1434.7,114,1428,116.9,1428,116.9z"/>
			</g>
		</g>
		<g>
			<g>
				<path class="st39" d="M1411.5,144.9c0,0-2.2,0.2-7-1.4c-4.7-1.6-5.1-9.9-6.1-8.9c-2.1,2-4.1,0.6-4.8-0.6c0,0,2.3-3,1.2-4.5
					c-1.1-1.5-2.8-2.5-2.8-2.5s3.3-16,18.5-8.7C1428.2,126.8,1411.5,144.9,1411.5,144.9z"/>
			</g>
		</g>
		<g>
			<g>
				<path class="st40" d="M1394.5,153.4l0.5-2.3c0,0,9.7-0.2,14.9,0.6l0.6,2.8C1410.5,154.4,1403.8,157.5,1394.5,153.4z"/>
			</g>
		</g>
		<g>
			<g>
				<path class="st34" d="M1396.9,132.5c0.9-1.5,4.1-2.4,4.5,1.7c0.3,3.2-5.8,6.7-5.9,3.7C1395.5,134.9,1396.3,133.5,1396.9,132.5z"
					/>
			</g>
		</g>
		<g>
			<g>
				<path class="st41" d="M1348,125.9c0,0-3.5,0.1-5.2,1.6c0,0-0.1,1,0.3,1.7c0,0,3-1.4,5.3-1.7
					C1348.5,127.5,1348.4,126.3,1348,125.9z"/>
			</g>
		</g>
		<g>
			<g>
				<circle class="st39" cx="1345.3" cy="127.3" r="1.5"/>
			</g>
		</g>
	</g>
</g>
<g>
	<g>
		<g>
			<path class="st42" d="M785.3-44.5c-1,0-2.1,0-2.9,0c-0.2,0-32.3-2.5-45.4,39.9c-11.3,37-37.4,35.6-38.7,35.2c-0.4,0-1,0-1.6,0
				c-18.3-0.8-32.9-16-32.9-34.5c0-19.1,15.4-34.5,34.5-34.5c11.7,0,22.4,6,29,15.8l5.6-3.7c-7.6-11.7-20.6-18.7-34.5-18.7
				c-22.8,0-41.1,18.3-41.1,41.1c0,22,17.3,39.9,39.1,41.1c0.4,0,1.2,0,1.6,0c0,0,0.4,0,1,0c5.8,0,32.7-2.1,44.4-39.9
				c11.3-37,37.4-35.6,38.7-35.2c0.8,0,1.9,0,2.7,0c17.7,1.2,31.9,16.4,31.9,34.1c0,19.1-15.4,34.5-34.5,34.5
				c-11.7,0-22.4-6-29-15.8l-5.6,3.7c7.6,11.7,20.4,18.7,34.5,18.7c22.8,0,41.1-18.3,41.1-41.1C823.1-24.8,806.5-42.6,785.3-44.5z"
				/>
		</g>
	</g>
	<g>
		<path class="st0" d="M689.7-3.6c0,3.1-0.8,5.6-2.7,7c-1.6,1.6-4.1,2.5-7.4,2.5h-5.3V-13h5.8c2.9,0,5.3,0.8,6.8,2.5
			C688.7-9.1,689.7-6.5,689.7-3.6z M687.4-3.4c0-2.5-0.4-4.1-1.9-5.6c-1.2-1.2-3.1-1.9-5.6-1.9H677V4h2.7c2.7,0,4.5-0.4,5.8-1.9
			C686.8,0.9,687.4-1.1,687.4-3.4z"/>
		<path class="st0" d="M704.3,5.9h-10.5v-18.7h10.5v1.9h-8.4v6h7.8v1.9h-7.8v6.8h8.4V5.9z"/>
		<path class="st0" d="M719.3-12.8h2.5L715,5.9h-2.1l-6.8-18.7h2.5l4.1,11.9c0.4,1.2,0.8,2.9,1.2,4.1c0.2-1.2,0.8-2.9,1.2-4.1
			L719.3-12.8z"/>
	</g>
	<g>
		<path class="st0" d="M776.3-3.2c0,2.9-0.8,5.3-2.5,7s-3.7,2.7-6.2,2.7c-2.9,0-4.9-0.8-6.2-2.7c-1.6-1.6-2.5-4.1-2.5-7
			c0-3.1,0.8-5.6,2.5-7c1.6-1.6,3.7-2.7,6.6-2.7c2.7,0,4.7,0.8,6.2,2.7C775.4-8.7,776.3-6.3,776.3-3.2z M761.2-3.2
			c0,2.7,0.4,4.5,1.6,5.8c1,1.2,2.7,2.1,4.7,2.1c2.1,0,3.7-0.8,4.7-2.1s1.6-3.1,1.6-5.8s-0.4-4.5-1.6-5.8s-2.7-1.9-4.7-1.9
			c-2.1,0-3.7,0.8-4.7,2.1C761.9-7.7,761.2-5.8,761.2-3.2z"/>
		<path class="st0" d="M792.1-7.1c0,1.9-0.4,3.3-1.9,4.5c-1.2,1-3.1,1.6-5.6,1.6h-2.1v7.2h-2.1v-18.9h4.9
			C789.6-12.6,792.1-10.8,792.1-7.1z M782.4-3.2h2.1c1.9,0,3.3-0.2,4.1-1c0.8-0.4,1.2-1.6,1.2-2.9s-0.4-2.1-1.2-2.9
			c-0.8-0.8-2.1-0.8-3.9-0.8h-2.5v7.6H782.4z"/>
		<path class="st0" d="M806.7,0.9c0,1.6-0.4,2.9-1.9,3.9c-1.2,1-2.9,1.2-4.9,1.2s-3.9-0.2-5.3-0.8V3.2c0.8,0.2,1.6,0.4,2.7,0.8
			c0.8,0.2,1.9,0.2,2.7,0.2c1.6,0,2.7-0.2,3.3-0.8c0.8-0.4,1-1.2,1-2.5c0-0.4,0-1.2-0.2-1.6c-0.2-0.4-0.8-0.8-1.2-1
			c-0.4-0.2-1.6-0.8-2.9-1.2C798-3.4,797-4.2,796.2-5c-0.8-0.8-1-2.1-1-3.3c0-1.6,0.4-2.7,1.6-3.3c1-0.8,2.7-1.2,4.1-1.2
			c1.9,0,3.7,0.2,5.3,1l-0.8,1.9c-1.6-0.4-3.1-1-4.5-1c-1,0-2.1,0.2-2.7,0.8c-0.6,0.6-1,1.2-1,2.1c0,0.4,0,1.2,0.2,1.6
			c0.2,0.4,0.4,0.8,1.2,1c0.4,0.2,1.2,0.8,2.7,1c2.1,0.8,3.3,1.6,4.1,2.5C806.3-1.1,806.7,0.1,806.7,0.9z"/>
	</g>
</g>
<g>
	<g>
		<path class="st43" d="M773.5,164.2c0,0-1.9,27.2,3.4,30.4c3.3,2,16.6,8.9,16.2,10.2c-0.4,1.3-7.5,11.5-7.5,11.5
			s-25.5-16.8-26.3-22.1c-0.8-5.2,1.3-39.8,4.8-41.4c2.6-1.2,4-0.2,7.3,2.2C776,158.6,773.5,164.2,773.5,164.2z"/>
	</g>
	<g>
		<g>
			<g>
				<path class="st44" d="M770.6,362.1c0,0-0.8,5.5-0.9,6.3c-0.1,0.8-8.8-0.5-8.8-0.5l-0.7-6.5C760.2,361.4,769.5,361.3,770.6,362.1
					z"/>
			</g>
		</g>
	</g>
	<g>
		<g>
			<g>
				<path class="st45" d="M769.8,367.7c0,0,2.8,3.3,5.4,4.8c2.7,1.4,6.9,2,8.4,3.5c1.1,1.1,4.2,5.7-6.9,5.6
					c-11.1-0.1-16.4,0.7-17.6-1.1c-1.2-1.8,1.7-13.2,1.7-13.2S763.4,368.3,769.8,367.7z"/>
			</g>
		</g>
	</g>
	<g>
		<g>
			<g>
				<path class="st44" d="M814.2,362.1c0,0-0.8,5.5-0.9,6.3c-0.1,0.8-8.8-0.5-8.8-0.5l-0.7-6.5C803.8,361.4,813.1,361.3,814.2,362.1
					z"/>
			</g>
		</g>
	</g>
	<g>
		<g>
			<g>
				<path class="st45" d="M813.4,367.7c0,0,2.8,3.3,5.4,4.8c2.7,1.4,12.5,2.6,14.1,4.1c1.1,1.1,3,5.4-12.6,5
					c-11.1-0.3-16.4,0.7-17.6-1.1c-1.2-1.8,1.7-13.2,1.7-13.2S806.9,368.3,813.4,367.7z"/>
			</g>
		</g>
	</g>
	<g>
		<g>
			<g>
				<path class="st45" d="M773.7,220.7c0,0-8.2,13-7.6,24.8c0.6,11.8-0.7,24.3-2,36.6c-1.4,13.7-5.1,42.2-5.3,49.5
					c-0.2,7.3,0.3,34.9,0.3,34.9l14.2-0.1c0,0,5-55.7,7.5-61.5c2.4-5.8,12.5-47.6,12.9-52.3C794.1,248.1,773.7,220.7,773.7,220.7z"
					/>
			</g>
		</g>
	</g>
	<g>
		<g>
			<g>
				<path class="st45" d="M816.8,222.5c0,0,3.2,32,4,39.2c0.8,7.2,0.3,38.4,0.7,42.9c0.4,4.5-2.7,52.1-3.5,61.2l-15.6-0.1
					c0,0-1.1-38.5-1.1-57.2c0-18.7-4.8-40.5-10.3-52.8c-5.5-12.3-18.1-12.6-21.5-35.5C769.6,220.1,812.2,215.2,816.8,222.5z"/>
			</g>
		</g>
	</g>
	<g>
		<g>
			<g>
				<path class="st34" d="M782.4,111c0,0,9.8-6.5,16.6,0.5c6.9,7,10.2,23.4,5.3,26.7c-4.9,3.3-13.3,4.1-17.2-0.3
					c-4-4.4-8.2-11.2-9.2-16.2C776.8,116.7,779.9,113.1,782.4,111z"/>
			</g>
		</g>
	</g>
	<g>
		<g>
			<g>
				<path class="st34" d="M800.9,139.3c0,0-0.1,6.9,0.6,8.3c0.8,1.5-14.2,1.5-14.2,1.5s-1.2-8-3.5-14.7
					C781.5,127.7,800.9,139.3,800.9,139.3z"/>
			</g>
		</g>
	</g>
	<g>
		<g>
			<g>
				<path class="st46" d="M784.2,134.3c0,0,1.4,1.4,5.4-0.2c4-1.6,7.7-8.3,9.3-9.3c1.6-1,1.4-2,1.4-2l1.4,1.3l1.9-0.3
					c0,0-2.8-4.5-0.8-7.1c2-2.6-6.3-15.2-18.4-7.5c0,0-9.5,5.2-7.7,10.9C778.2,125.8,781.2,132,784.2,134.3z"/>
			</g>
		</g>
	</g>
	<g>
		<g>
			<g>
				<path class="st47" d="M802.5,147.4c0,0,0-2.8-1.3-3.1c-1.3-0.3-14-1.5-15.5-0.9v3.3C785.6,146.7,788.6,148.6,802.5,147.4z"/>
			</g>
		</g>
	</g>
	<g>
		<g>
			<g>
				<path class="st34" d="M799.4,120.8c-0.5-0.9-3.6-3.1-3.8,0.1c-0.2,3.2,3.1,6.6,4.3,5.9C801.1,126.2,800.6,123.1,799.4,120.8z"/>
			</g>
		</g>
	</g>
	<g id="_Group__1_">
		<path id="_Path_2-2" class="st48" d="M888.7,207L888.7,207c2.8,1.1,5.8-0.3,6.9-3.1l0,0l8.4-21.8c1.1-2.8-0.3-5.8-3.1-6.9l0,0l0,0
			c-2.8-1.1-5.8,0.3-6.9,3.1l0,0l-8.4,21.7c-1.1,2.8,0.2,5.8,2.9,6.9C888.6,206.9,888.7,206.9,888.7,207z"/>
		<path id="_Path_3-2" class="st49" d="M890.8,205.9c1,0.4,2.2-0.1,2.6-1.2l0,0l8.4-21.8c0.4-1-0.1-2.2-1.2-2.6l0,0
			c-1-0.4-2.2,0.1-2.6,1c0,0-0.1,0.1,0,0.1l-8.4,21.8C889.1,204.3,889.7,205.4,890.8,205.9z"/>
		<g id="_Group_2">
			<linearGradient id="_Path_4-2_1_" gradientUnits="userSpaceOnUse" x1="898.2346" y1="173.2368" x2="905.2733" y2="173.2368">
				<stop  offset="0" style="stop-color:#404B61"/>
				<stop  offset="0.486" style="stop-color:#3C4860"/>
				<stop  offset="1" style="stop-color:#2F3E5C"/>
			</linearGradient>
			<path id="_Path_4-2" class="st50" d="M900,178c1.4,0.5,3-0.2,3.5-1.5l0,0l1.6-4.5c0.5-1.4-0.2-3-1.5-3.5l0,0
				c-1.4-0.5-3,0.2-3.5,1.5l-1.6,4.5C897.8,175.9,898.5,177.5,900,178z"/>
		</g>
		<linearGradient id="SVGID_2_" gradientUnits="userSpaceOnUse" x1="888.3577" y1="152.3142" x2="930.6526" y2="152.3142">
			<stop  offset="0" style="stop-color:#404B61"/>
			<stop  offset="0.486" style="stop-color:#3C4860"/>
			<stop  offset="1" style="stop-color:#2F3E5C"/>
		</linearGradient>
		<path class="st51" d="M901.1,133c10.7-4.7,23.1,0.1,27.7,10.7l0,0c4.7,10.7-0.1,23.1-10.7,27.9c-5.2,2.3-11,2.4-16.2,0.3l0,0
			c-5.2-2-9.4-6-11.7-11.1c-2.3-5.2-2.4-11-0.4-16.2C892,139.5,896,135.4,901.1,133z M895.1,146.7c-3.2,8,0.8,17.1,8.8,20.3
			c0,0,0,0,0.1,0.1l0,0c3.8,1.5,8.2,1.4,12.1-0.3c7.9-3.6,11.5-12.9,8-20.7c-1.7-3.8-4.8-6.8-8.6-8.3
			C907.4,134.6,898.2,138.6,895.1,146.7L895.1,146.7z"/>
		<g id="_Group_3" class="st52">
			<path id="_Path_5-2" class="st53" d="M915.5,137.8c8.1,3.1,12.1,12.2,9,20.3c-1.5,3.9-4.5,7-8.3,8.6c-3.8,1.7-8.2,1.8-12.1,0.3
				l0,0c-8.1-3.1-12.1-12.1-9-20.2c0,0,0,0,0.1-0.1C898.2,138.7,907.2,134.6,915.5,137.8C915.3,137.7,915.4,137.7,915.5,137.8z"/>
		</g>
		<path id="_Path_6_1_" class="st54" d="M895.1,146.7c1.5-3.9,4.5-7,8.3-8.6c1-0.5,2.2-0.9,3.3-1.1c1.9,0,3.7,0.4,5.6,1
			c8.1,3.1,12.1,12.1,8.9,20.2c-1.5,3.9-4.5,7-8.3,8.6c-1,0.5-2.2,0.9-3.3,1.1c-1.9,0-3.7-0.4-5.6-1l0,0
			C896,163.8,892,154.8,895.1,146.7C895.1,146.8,895,146.7,895.1,146.7L895.1,146.7z"/>
	</g>
	<g>
		<g>
			<g>
				<path class="st46" d="M779.5,112.7c0,0-14,3.7,4.1,21.1L779.5,112.7z"/>
			</g>
		</g>
	</g>
	<g>
		<g>
			<path class="st34" d="M904.2,186.9l-14.2-0.1c1.2-0.7,3.2-2,2.8-2.6c-0.6-0.8-4.7,1-6.3,1.2c-1.5,0.2-4,0-5.9,0.7l-4.5,1.9
				l4.1,3.8c0,0,7.4,1.1,9.6,1.2c3.5,0.2,14.4-4,14.6-4.6C904.7,187.2,904.2,186.9,904.2,186.9z"/>
		</g>
	</g>
	<g>
		<g>
			<g>
				<path class="st43" d="M821,151.3c-9-1.6-18.6-3.9-18.6-3.9l-16.8-0.7c0,0-15.5,3.4-21.5,6.2c-0.6,0.3-0.6,13.8-2.2,17.3l5,10.6
					c0,0,2.9,21.1,3.5,30.5c0.3,4.3-6,40.4-6,40.4s6.7,2,18.2,3.3c11.5,1.3,40.2-0.5,40.4-1.8c0.2-1.4-5.6-50.6-5.8-53.1
					c-0.4-3.9,1.1-22,1.1-22c2.2,2.9,14.7,13.8,20.8,17.3c4.3,2.5,15,1,18.2,0.6c6.8-0.7,25.6-2,26-2.7c0.3-0.4-1.1-7.3-1.9-7.5
					c-0.7-0.2-24.9-1.4-31-1.1c-2.5,0.1-10.5-8.9-10.5-8.9S826,153.5,821,151.3z"/>
			</g>
		</g>
	</g>
</g>
<g>
	<g>
		<path class="st55" d="M938.1-110.7h-45.3c-2.7,0-4.9,2.2-4.9,4.9V-2.6c0,2.7,2.2,4.9,4.9,4.9h80.9c2.7,0,4.9-2.2,4.9-4.9v-103.1
			c0-2.7-2.2-4.9-4.9-4.9L938.1-110.7z"/>
		<path class="st55" d="M967.1-103.7h-67.9c-2.3,0-4.1,1.8-4.1,4.1V-9c0,2.3,1.8,4.1,4.1,4.1h67.9c2.3,0,4.1-1.8,4.1-4.1v-90.6
			C971.2-101.8,969.4-103.6,967.1-103.7z"/>
		<rect x="905.8" y="-103.7" class="st55" width="54.7" height="5.1"/>
		<circle class="st55" cx="907.3" cy="-83.2" r="3.2"/>
		<circle class="st55" cx="907.3" cy="-67.6" r="3.2"/>
		<circle class="st55" cx="907.3" cy="-52.1" r="3.2"/>
		<circle class="st55" cx="907.3" cy="-37.3" r="3.2"/>
		<circle class="st55" cx="907.3" cy="-22" r="3.2"/>
		<path class="st55" d="M941.8-115.7c0-4.7-3.9-8.6-8.6-8.6s-8.6,3.9-8.6,8.6h-18.8v17.2h54.7v-17.2H941.8z"/>
		<line class="st56" x1="915.8" y1="-83.2" x2="959.7" y2="-83.2"/>
		<line class="st56" x1="915.8" y1="-67.8" x2="959.7" y2="-67.8"/>
		<line class="st56" x1="915.8" y1="-52.4" x2="959.7" y2="-52.4"/>
		<line class="st56" x1="915.8" y1="-37" x2="959.7" y2="-37"/>
		<line class="st56" x1="915.8" y1="-22" x2="959.7" y2="-22"/>
	</g>
</g>
<g>
	<g>
		<path class="st1" d="M1102.7-49.8h-43.3v-43.3h43.3V-49.8z M1061.1-51.6h39.9v-39.9h-39.9V-51.6z"/>
	</g>
	<g>
		<rect x="1080.2" y="-81.4" class="st1" width="1.7" height="20.2"/>
	</g>
</g>
<g>
	<rect x="1071" y="-74.1" class="st0" width="20.2" height="1.7"/>
</g>
</svg>
